<svg width="60" height="60" viewBox="0 0 60 60" fill="none" xmlns="http://www.w3.org/2000/svg">
<path d="M17.4478 18.078H18.4095V18.25C19.7933 18.7504 20.8018 20.2983 20.8018 22.1356C20.8018 23.9728 19.7933 25.5286 18.4095 26.0289V26.2009H17.4478C15.595 26.2009 14.0939 24.3793 14.0939 22.1434C14.0939 19.9074 15.6028 18.078 17.4478 18.078Z" fill="#581435"/>
<path d="M18.4094 26.1931C20.2617 26.1931 21.7633 24.3765 21.7633 22.1356C21.7633 19.8946 20.2617 18.078 18.4094 18.078C16.5571 18.078 15.0555 19.8946 15.0555 22.1356C15.0555 24.3765 16.5571 26.1931 18.4094 26.1931Z" fill="#8B315C"/>
<path d="M15.0631 22.2139C15.0162 22.2139 14.9849 22.1826 14.9849 22.1357C14.9849 19.8607 16.5251 18 18.4092 18C18.4561 18 18.4874 18.0313 18.4874 18.0782C18.4874 18.1251 18.4561 18.1564 18.4092 18.1564C16.6111 18.1564 15.1413 19.9467 15.1413 22.1357C15.1413 22.1826 15.1022 22.2139 15.0631 22.2139Z" fill="white"/>
<path d="M50.0567 42.4391L25.7817 41.1335C25.2658 41.1022 24.8514 40.6019 24.8514 40.0077V22.9957C24.8514 22.4015 25.2658 21.9012 25.7817 21.8699L50.0567 20.5643C50.729 20.5252 51.2685 21.049 51.2685 21.7292V41.2664C51.2685 41.9544 50.7212 42.4704 50.0567 42.4391Z" fill="#E78C55"/>
<path d="M48.7042 42.4391L24.4293 41.1335C23.9133 41.1022 23.4989 40.6019 23.4989 40.0077V22.9957C23.4989 22.4015 23.9133 21.9012 24.4293 21.8699L48.7042 20.5643C49.3766 20.5252 49.916 21.049 49.916 21.7292V41.2664C49.9238 41.9544 49.3766 42.4704 48.7042 42.4391Z" fill="#FC9353"/>
<path d="M48.7041 20.5721L44.5136 20.7988V42.2202L48.7041 42.4469C49.3764 42.486 49.9159 41.9622 49.9159 41.282V21.737C49.9237 21.0568 49.3764 20.533 48.7041 20.5721Z" fill="#FFB283"/>
<path d="M43.8961 42.5329L40.9174 41.8292C40.7767 41.798 40.6516 41.9231 40.6829 42.0638L41.3865 45.0424C41.4177 45.191 41.6054 45.2457 41.7148 45.1363L42.2699 44.5812L43.7319 46.0432C43.8101 46.1213 43.9273 46.1213 44.0055 46.0432L44.8968 45.1519C44.9749 45.0737 44.9749 44.9564 44.8968 44.8783L43.4348 43.4163L43.9899 42.8612C44.0993 42.7518 44.0446 42.572 43.8961 42.5329Z" fill="#FDDC61"/>
<path d="M48.7042 20.5721L24.4293 21.8699C23.9133 21.9012 23.4989 22.4015 23.4989 22.9957V24.7391L49.9238 23.7384V21.737C49.9238 21.0568 49.3766 20.533 48.7042 20.5721Z" fill="#D6763C"/>
<path d="M49.9237 36.1295C49.8846 36.1295 49.8455 36.0982 49.8455 36.0513V21.7365C49.8455 21.6974 49.8768 21.6583 49.9237 21.6583C49.9706 21.6583 50.0018 21.6896 50.0018 21.7365V36.0591C49.994 36.0982 49.9628 36.1295 49.9237 36.1295Z" fill="#F1F5FE"/>
<path d="M23.4989 24.8172C23.4599 24.8172 23.4286 24.7859 23.4208 24.7468C23.4208 24.7078 23.452 24.6687 23.4911 24.6687L40.253 24.0354C40.292 24.0354 40.3311 24.0667 40.3311 24.1058C40.3311 24.1449 40.2999 24.1839 40.2608 24.1839L23.4989 24.8172Z" fill="#F1F5FE"/>
<path d="M34.1002 35.3403C34.1002 35.3403 33.897 30.7433 32.4115 28.7028C32.3646 28.6402 32.2552 28.6637 32.2474 28.7419C32.1144 29.4924 31.8017 32.2287 33.3966 35.3403" fill="#6AD175"/>
<path d="M34.5224 35.6609C34.5224 35.6609 34.5771 31.9786 36.4847 29.4847C36.5394 29.4143 36.6489 29.4456 36.6489 29.5316C36.6958 30.157 36.7974 31.8379 36.5629 32.479C36.2658 33.2686 34.9758 34.5586 34.9133 35.6609H34.5224V35.6609Z" fill="#6AD175"/>
<path d="M34.3191 35.6609C34.3191 35.6609 33.4044 33.7454 33.506 31.2671C33.5842 29.4299 33.9282 28.3588 34.1002 27.9367C34.1314 27.8585 34.2487 27.8585 34.2722 27.9445C34.5145 28.7106 35.2103 31.4 34.7725 35.6687" fill="#3E9F48"/>
<path d="M34.3582 34.2457C34.3191 34.2457 34.2879 34.2223 34.2879 34.1832C33.9204 31.4703 34.1237 28.4056 34.1237 28.3744C34.1237 28.3353 34.1628 28.304 34.2019 28.304C34.241 28.304 34.2722 28.3431 34.2722 28.3822C34.2722 28.4135 34.069 31.4625 34.4364 34.1675C34.4442 34.2066 34.413 34.2457 34.3739 34.2535C34.3661 34.2457 34.366 34.2457 34.3582 34.2457Z" fill="white"/>
<path d="M33.5919 35.1211C33.5919 35.1211 32.9821 32.5411 30.6914 31.0401C30.6601 31.0166 30.6132 31.0479 30.621 31.087C30.6914 31.4544 30.9259 32.6662 31.1683 32.9789C31.4497 33.3464 32.0752 33.2057 32.169 33.5262C32.2628 33.8467 32.0517 34.3862 33.0602 35.0429" fill="#3E9F48"/>
<path d="M35.4213 34.7775H32.4817C32.3957 34.7775 32.3254 34.84 32.3097 34.9182L31.309 39.9061C31.0667 41.1022 31.6608 42.3219 32.7476 42.8691H35.1555C36.25 42.314 36.8364 41.1022 36.594 39.9061L35.5933 34.9182C35.5777 34.8322 35.5073 34.7775 35.4213 34.7775Z" fill="white"/>
<g opacity="0.5">
<path opacity="0.5" d="M35.4213 34.7775H34.2486L35.2806 39.9139C35.523 41.1101 34.9288 42.3297 33.8421 42.8769H35.1555C36.25 42.3219 36.8364 41.1101 36.594 39.9139L35.5933 34.926C35.5777 34.8322 35.5073 34.7775 35.4213 34.7775Z" fill="#999999"/>
</g>
<path d="M32.6304 42.8766H35.2651C35.4996 42.8766 35.6872 43.0643 35.6872 43.2988H32.2004C32.2082 43.0643 32.3959 42.8766 32.6304 42.8766Z" fill="#8B315C"/>
<path d="M32.2395 43.2991H35.6716C35.9061 43.2991 36.0938 43.4867 36.0938 43.7212H31.8095C31.8095 43.4867 32.005 43.2991 32.2395 43.2991Z" fill="#651F40"/>
<g opacity="0.5">
<path d="M36.2188 40.6957C36.3517 40.6097 36.5002 40.5472 36.6488 40.4924C36.6488 40.4534 36.6488 40.4143 36.6488 40.3752C36.4533 40.4377 36.2657 40.5315 36.0937 40.641C35.5464 40.383 35.0695 40.0077 34.6943 39.5465C35.0539 39.0696 35.265 38.4676 35.265 37.8265C35.265 36.8571 34.7803 35.9971 34.0376 35.4733C34.1314 35.2231 34.2565 34.9886 34.3972 34.7697H34.2643C34.1392 34.9729 34.0297 35.184 33.9437 35.4107C33.4981 35.1215 32.9587 34.9495 32.388 34.9495C32.3567 34.9495 32.3254 34.9495 32.2941 34.9495L32.2707 35.0667C32.3098 35.0667 32.3489 35.0667 32.388 35.0667C32.943 35.0667 33.4668 35.2309 33.8968 35.5202C33.7326 35.9658 33.6388 36.4505 33.6388 36.9587C33.6388 37.9359 33.975 38.835 34.5379 39.5543C34.0923 40.1094 33.4356 40.4924 32.6929 40.5784C32.3645 40.1563 31.872 39.8592 31.3247 39.781L31.3012 39.8905C31.8016 39.9686 32.2472 40.2188 32.5599 40.5941C32.5052 40.5941 32.4427 40.6019 32.388 40.6019C31.9814 40.6019 31.5983 40.5159 31.2465 40.3517C31.2465 40.3908 31.2465 40.4299 31.2465 40.4768C31.5983 40.6253 31.9814 40.7113 32.388 40.7113C32.4739 40.7113 32.5599 40.7035 32.6459 40.6957C32.8961 41.0397 33.0447 41.4541 33.0447 41.9075C33.0447 42.2515 32.9587 42.5799 32.8023 42.8691H32.9274C33.0759 42.5799 33.1541 42.2515 33.1541 41.9075C33.1541 41.4541 33.0134 41.0241 32.771 40.6801C33.5137 40.5784 34.1626 40.1954 34.6161 39.6403C34.9914 40.0859 35.4526 40.4534 35.9842 40.7192C35.4682 41.1179 35.1321 41.7355 35.1321 42.4391C35.1321 42.5877 35.1477 42.7284 35.1712 42.8613C35.2103 42.8457 35.2415 42.8222 35.2728 42.8066C35.2493 42.6893 35.2415 42.5642 35.2415 42.4391C35.2415 41.7511 35.5777 41.1492 36.0937 40.7739C36.2501 40.8443 36.4142 40.9068 36.5862 40.9615C36.594 40.9224 36.6019 40.8912 36.6019 40.8521C36.4846 40.8052 36.3517 40.7583 36.2188 40.6957ZM34.6239 39.4605C34.0845 38.7725 33.7639 37.9047 33.7639 36.9587C33.7639 36.4818 33.8499 36.0127 33.9985 35.5905C34.6943 36.0909 35.1555 36.9118 35.1555 37.8343C35.1555 38.4441 34.9601 39.007 34.6239 39.4605Z" fill="#933562"/>
</g>
<path d="M35.1555 42.9472H32.9352C32.8961 42.9472 32.857 42.9159 32.857 42.869C32.857 42.8221 32.8883 42.7908 32.9352 42.7908H35.1555C35.1946 42.7908 35.2337 42.8221 35.2337 42.869C35.2337 42.9159 35.2024 42.9472 35.1555 42.9472Z" fill="white"/>
<path d="M35.0303 33.6513C35.0225 33.6513 35.0225 33.6513 35.0147 33.6513C34.9756 33.6435 34.9522 33.6044 34.96 33.5653C35.3352 31.8063 36.3672 29.7658 36.375 29.7423C36.3907 29.7032 36.4376 29.6876 36.4767 29.711C36.5158 29.7267 36.5314 29.7736 36.5079 29.8127C36.5001 29.8361 35.476 31.8532 35.1007 33.5966C35.1007 33.6279 35.0694 33.6513 35.0303 33.6513Z" fill="white"/>
<path d="M32.9898 34.1286C32.9585 34.1286 32.9272 34.113 32.9194 34.0817C32.4191 32.7136 30.7695 31.3063 30.7538 31.2907C30.7226 31.2672 30.7147 31.2203 30.746 31.189C30.7695 31.1578 30.8164 31.15 30.8476 31.1812C30.918 31.236 32.5441 32.6276 33.0523 34.0348C33.068 34.0739 33.0445 34.113 33.0054 34.1286C33.0054 34.1286 32.9976 34.1286 32.9898 34.1286Z" fill="white"/>
<path d="M39.9246 44.6363H27.9786C27.9395 44.6363 27.9005 44.605 27.9005 44.5581V26.8738C27.9005 26.8347 27.9317 26.7956 27.9786 26.7956H39.9167C39.9558 26.7956 39.9949 26.8269 39.9949 26.8738V44.5581C39.9949 44.5972 39.9637 44.6363 39.9246 44.6363ZM28.0568 44.4799H39.8464V26.9441H28.0568V44.4799Z" fill="white"/>
<path d="M28.5806 26.2792H27.3922V27.4676H28.5806V26.2792Z" fill="white"/>
<path d="M40.5188 26.2792H39.3304V27.4676H40.5188V26.2792Z" fill="white"/>
<path d="M28.5806 43.9636H27.3922V45.152H28.5806V43.9636Z" fill="white"/>
<path d="M40.5188 43.9636H39.3304V45.152H40.5188V43.9636Z" fill="white"/>
<path d="M33.8422 27.3193C34.0883 27.3193 34.2878 27.1198 34.2878 26.8737C34.2878 26.6276 34.0883 26.428 33.8422 26.428C33.5961 26.428 33.3966 26.6276 33.3966 26.8737C33.3966 27.1198 33.5961 27.3193 33.8422 27.3193Z" fill="white"/>
<path d="M33.8422 45.0034C34.0883 45.0034 34.2878 44.8039 34.2878 44.5577C34.2878 44.3116 34.0883 44.1121 33.8422 44.1121C33.5961 44.1121 33.3966 44.3116 33.3966 44.5577C33.3966 44.8039 33.5961 45.0034 33.8422 45.0034Z" fill="white"/>
<path d="M27.9787 36.1613C28.2248 36.1613 28.4243 35.9618 28.4243 35.7157C28.4243 35.4696 28.2248 35.2701 27.9787 35.2701C27.7326 35.2701 27.5331 35.4696 27.5331 35.7157C27.5331 35.9618 27.7326 36.1613 27.9787 36.1613Z" fill="white"/>
<path d="M39.9244 36.1613C40.1705 36.1613 40.37 35.9618 40.37 35.7157C40.37 35.4696 40.1705 35.2701 39.9244 35.2701C39.6783 35.2701 39.4788 35.4696 39.4788 35.7157C39.4788 35.9618 39.6783 36.1613 39.9244 36.1613Z" fill="white"/>
<path d="M14 49.7726L18.6674 39.617H20.4655L25.1329 49.7726H22.8734L21.9118 47.521H17.1819L16.2203 49.7726H14ZM19.5508 42.025L17.9246 45.8323H21.1848L19.5508 42.025Z" fill="#CED5EA"/>
<path d="M14.9771 49.7726L19.6445 39.617H21.4426L26.1178 49.7726H23.8584L22.8968 47.521H18.1669L17.2053 49.7726H14.9771ZM20.5279 42.025L18.9018 45.8323H22.1619L20.5279 42.025Z" fill="white"/>
<path d="M50.5179 47.0984H35.6011C35.2571 47.0984 34.9835 47.3799 34.9835 47.7161V49.2328C34.9835 49.5768 35.2649 49.8504 35.6011 49.8504H50.5257C50.8697 49.8504 51.1433 49.5689 51.1433 49.2328V47.7161C51.1433 47.3721 50.8619 47.0984 50.5179 47.0984Z" fill="#2C90D2"/>
<path d="M44.3103 47.0984H29.3857C29.0417 47.0984 28.7681 47.3799 28.7681 47.7161V49.2328C28.7681 49.5768 29.0495 49.8504 29.3857 49.8504H44.3103C44.6543 49.8504 44.9279 49.5689 44.9279 49.2328V47.7161C44.9279 47.3721 44.6543 47.0984 44.3103 47.0984Z" fill="#5CBEFF"/>
<path d="M19.027 22.3231L18.6361 21.7055L18.6126 21.299H18.3781H18.1826L17.5337 22.3231C17.4477 22.456 17.4399 22.6358 17.5025 22.7766L17.7526 23.3238H18.8081L19.0582 22.7766C19.1208 22.628 19.113 22.456 19.027 22.3231ZM18.2764 22.7062C18.1748 22.7062 18.0966 22.6124 18.0966 22.4951C18.0966 22.4247 18.1279 22.3622 18.1826 22.3231V22.0026H18.3781V22.3231C18.425 22.3622 18.4641 22.4247 18.4641 22.4951C18.4563 22.6124 18.3781 22.7062 18.2764 22.7062Z" fill="#490F2B"/>
<path d="M18.8238 23.5355H17.7371C17.612 23.5355 17.5026 23.6527 17.5026 23.8013V24.2391H19.0583V23.8013C19.0583 23.6527 18.9489 23.5355 18.8238 23.5355Z" fill="#490F2B"/>
<path d="M19.9181 20.3999C19.8478 20.3999 19.7852 20.4468 19.7461 20.5094H18.5344V20.4938C18.5344 20.4156 18.4796 20.3452 18.4093 20.3452H18.1513C18.0809 20.3452 18.0262 20.4078 18.0262 20.4938V20.5094H16.8769V20.3999H16.6424C16.5251 20.3999 16.4313 20.5094 16.4313 20.6423C16.4313 20.7752 16.5251 20.8847 16.6424 20.8847H16.8769V20.7752H17.4476C16.9942 21.0957 16.6893 21.6743 16.6893 22.331H16.9238C16.9238 21.5726 17.4007 20.9394 18.0184 20.7987C18.0262 20.869 18.0731 20.9316 18.1435 20.9316H18.4014C18.464 20.9316 18.5187 20.8768 18.5265 20.7987C19.152 20.9394 19.6211 21.5726 19.6211 22.331H19.8556C19.8556 21.6743 19.5507 21.0957 19.0972 20.7752H19.7305C19.7696 20.8377 19.8321 20.8847 19.9025 20.8847H20.137V20.3921H19.9181V20.3999Z" fill="#490F2B"/>
<path d="M19.2616 22.3231L18.6127 21.299V22.3309C18.6596 22.37 18.6987 22.4326 18.6987 22.5029C18.6987 22.6202 18.6205 22.714 18.5189 22.714C18.4172 22.714 18.339 22.6202 18.339 22.5029C18.339 22.4326 18.3703 22.37 18.425 22.3309V21.299L17.7761 22.3231C17.6901 22.456 17.6823 22.6358 17.7449 22.7766L17.9951 23.3238H19.0505L19.3007 22.7766C19.3554 22.628 19.3476 22.456 19.2616 22.3231Z" fill="#78224B"/>
<path d="M19.0584 23.5355H17.9716C17.8466 23.5355 17.7371 23.6527 17.7371 23.8013V24.2391H19.2929V23.8013C19.2929 23.6527 19.1834 23.5355 19.0584 23.5355Z" fill="#78224B"/>
<path d="M20.1528 20.3999C20.0824 20.3999 20.0199 20.4468 19.9808 20.5094H18.769V20.4938C18.769 20.4156 18.7143 20.3452 18.6439 20.3452H18.3859C18.3155 20.3452 18.2608 20.4078 18.2608 20.4938V20.5094H17.049C17.0099 20.4468 16.9474 20.3999 16.877 20.3999C16.7597 20.3999 16.6659 20.5094 16.6659 20.6423C16.6659 20.7752 16.7597 20.8847 16.877 20.8847C16.9474 20.8847 17.0099 20.8377 17.049 20.7752H17.6823C17.2288 21.0957 16.9239 21.6743 16.9239 22.331H17.1585C17.1585 21.5726 17.6354 20.9394 18.253 20.7987C18.2608 20.869 18.3077 20.9316 18.3781 20.9316H18.6361C18.6986 20.9316 18.7533 20.8768 18.7612 20.7987C19.3866 20.9394 19.8557 21.5726 19.8557 22.331H20.0902C20.0902 21.6743 19.7853 21.0957 19.3319 20.7752H19.9651C20.0042 20.8377 20.0668 20.8847 20.1371 20.8847C20.2544 20.8847 20.3482 20.7752 20.3482 20.6423C20.3639 20.5094 20.27 20.3999 20.1528 20.3999Z" fill="#78224B"/>
<rect width="60" height="59.8477" rx="10" fill="#2879F3"/>
<path d="M15.4478 13.078H16.4095V13.25C17.7933 13.7504 18.8018 15.2983 18.8018 17.1356C18.8018 18.9728 17.7933 20.5286 16.4095 21.0289V21.2009H15.4478C13.595 21.2009 12.0939 19.3793 12.0939 17.1434C12.0939 14.9074 13.6028 13.078 15.4478 13.078Z" fill="#581435"/>
<path d="M16.4094 21.1931C18.2617 21.1931 19.7633 19.3765 19.7633 17.1356C19.7633 14.8946 18.2617 13.078 16.4094 13.078C14.5571 13.078 13.0555 14.8946 13.0555 17.1356C13.0555 19.3765 14.5571 21.1931 16.4094 21.1931Z" fill="#8B315C"/>
<path d="M13.0631 17.2139C13.0162 17.2139 12.9849 17.1826 12.9849 17.1357C12.9849 14.8607 14.5251 13 16.4092 13C16.4561 13 16.4874 13.0313 16.4874 13.0782C16.4874 13.1251 16.4561 13.1564 16.4092 13.1564C14.6111 13.1564 13.1413 14.9467 13.1413 17.1357C13.1413 17.1826 13.1022 17.2139 13.0631 17.2139Z" fill="white"/>
<path d="M48.0567 37.4391L23.7817 36.1335C23.2658 36.1022 22.8514 35.6019 22.8514 35.0077V17.9957C22.8514 17.4015 23.2658 16.9012 23.7817 16.8699L48.0567 15.5643C48.729 15.5252 49.2685 16.049 49.2685 16.7292V36.2664C49.2685 36.9544 48.7212 37.4704 48.0567 37.4391Z" fill="#E78C55"/>
<path d="M46.7042 37.4391L22.4293 36.1335C21.9133 36.1022 21.4989 35.6019 21.4989 35.0077V17.9957C21.4989 17.4015 21.9133 16.9012 22.4293 16.8699L46.7042 15.5643C47.3766 15.5252 47.916 16.049 47.916 16.7292V36.2664C47.9238 36.9544 47.3766 37.4704 46.7042 37.4391Z" fill="#FC9353"/>
<path d="M46.7041 15.5721L42.5136 15.7988V37.2202L46.7041 37.4469C47.3764 37.486 47.9159 36.9622 47.9159 36.282V16.737C47.9237 16.0568 47.3764 15.533 46.7041 15.5721Z" fill="#FFB283"/>
<path d="M41.8961 37.5329L38.9174 36.8292C38.7767 36.798 38.6516 36.9231 38.6829 37.0638L39.3865 40.0424C39.4177 40.191 39.6054 40.2457 39.7148 40.1363L40.2699 39.5812L41.7319 41.0432C41.8101 41.1213 41.9273 41.1213 42.0055 41.0432L42.8968 40.1519C42.9749 40.0737 42.9749 39.9564 42.8968 39.8783L41.4348 38.4163L41.9899 37.8612C42.0993 37.7518 42.0446 37.572 41.8961 37.5329Z" fill="#FDDC61"/>
<path d="M46.7042 15.5721L22.4293 16.8699C21.9133 16.9012 21.4989 17.4015 21.4989 17.9957V19.7391L47.9238 18.7384V16.737C47.9238 16.0568 47.3766 15.533 46.7042 15.5721Z" fill="#D6763C"/>
<path d="M47.9237 31.1295C47.8846 31.1295 47.8455 31.0982 47.8455 31.0513V16.7365C47.8455 16.6974 47.8768 16.6583 47.9237 16.6583C47.9706 16.6583 48.0018 16.6896 48.0018 16.7365V31.0591C47.994 31.0982 47.9628 31.1295 47.9237 31.1295Z" fill="#F1F5FE"/>
<path d="M21.4989 19.8172C21.4599 19.8172 21.4286 19.7859 21.4208 19.7468C21.4208 19.7078 21.452 19.6687 21.4911 19.6687L38.253 19.0354C38.292 19.0354 38.3311 19.0667 38.3311 19.1058C38.3311 19.1449 38.2999 19.1839 38.2608 19.1839L21.4989 19.8172Z" fill="#F1F5FE"/>
<path d="M32.1002 30.3403C32.1002 30.3403 31.897 25.7433 30.4115 23.7028C30.3646 23.6402 30.2552 23.6637 30.2474 23.7419C30.1144 24.4924 29.8017 27.2287 31.3966 30.3403" fill="#6AD175"/>
<path d="M32.5224 30.6609C32.5224 30.6609 32.5771 26.9786 34.4847 24.4847C34.5394 24.4143 34.6489 24.4456 34.6489 24.5316C34.6958 25.157 34.7974 26.8379 34.5629 27.479C34.2658 28.2686 32.9758 29.5586 32.9133 30.6609H32.5224V30.6609Z" fill="#6AD175"/>
<path d="M32.3191 30.6609C32.3191 30.6609 31.4044 28.7454 31.506 26.2671C31.5842 24.4299 31.9282 23.3588 32.1002 22.9367C32.1314 22.8585 32.2487 22.8585 32.2722 22.9445C32.5145 23.7106 33.2103 26.4 32.7725 30.6687" fill="#3E9F48"/>
<path d="M32.3582 29.2457C32.3191 29.2457 32.2879 29.2223 32.2879 29.1832C31.9204 26.4703 32.1237 23.4056 32.1237 23.3744C32.1237 23.3353 32.1628 23.304 32.2019 23.304C32.241 23.304 32.2722 23.3431 32.2722 23.3822C32.2722 23.4135 32.069 26.4625 32.4364 29.1675C32.4442 29.2066 32.413 29.2457 32.3739 29.2535C32.3661 29.2457 32.366 29.2457 32.3582 29.2457Z" fill="white"/>
<path d="M31.5919 30.1211C31.5919 30.1211 30.9821 27.5411 28.6914 26.0401C28.6601 26.0166 28.6132 26.0479 28.621 26.087C28.6914 26.4544 28.9259 27.6662 29.1683 27.9789C29.4497 28.3464 30.0752 28.2057 30.169 28.5262C30.2628 28.8467 30.0517 29.3862 31.0602 30.0429" fill="#3E9F48"/>
<path d="M33.4213 29.7775H30.4817C30.3957 29.7775 30.3254 29.84 30.3097 29.9182L29.309 34.9061C29.0667 36.1022 29.6608 37.3219 30.7476 37.8691H33.1555C34.25 37.314 34.8364 36.1022 34.594 34.9061L33.5933 29.9182C33.5777 29.8322 33.5073 29.7775 33.4213 29.7775Z" fill="white"/>
<g opacity="0.5">
<path opacity="0.5" d="M33.4213 29.7775H32.2486L33.2806 34.9139C33.523 36.1101 32.9288 37.3297 31.8421 37.8769H33.1555C34.25 37.3219 34.8364 36.1101 34.594 34.9139L33.5933 29.926C33.5777 29.8322 33.5073 29.7775 33.4213 29.7775Z" fill="#999999"/>
</g>
<path d="M30.6304 37.8766H33.2651C33.4996 37.8766 33.6872 38.0643 33.6872 38.2988H30.2004C30.2082 38.0643 30.3959 37.8766 30.6304 37.8766Z" fill="#8B315C"/>
<path d="M30.2395 38.2991H33.6716C33.9061 38.2991 34.0938 38.4867 34.0938 38.7212H29.8095C29.8095 38.4867 30.005 38.2991 30.2395 38.2991Z" fill="#651F40"/>
<g opacity="0.5">
<path d="M34.2188 35.6957C34.3517 35.6097 34.5002 35.5472 34.6488 35.4924C34.6488 35.4534 34.6488 35.4143 34.6488 35.3752C34.4533 35.4377 34.2657 35.5315 34.0937 35.641C33.5464 35.383 33.0695 35.0077 32.6943 34.5465C33.0539 34.0696 33.265 33.4676 33.265 32.8265C33.265 31.8571 32.7803 30.9971 32.0376 30.4733C32.1314 30.2231 32.2565 29.9886 32.3972 29.7697H32.2643C32.1392 29.9729 32.0297 30.184 31.9437 30.4107C31.4981 30.1215 30.9587 29.9495 30.388 29.9495C30.3567 29.9495 30.3254 29.9495 30.2941 29.9495L30.2707 30.0667C30.3098 30.0667 30.3489 30.0667 30.388 30.0667C30.943 30.0667 31.4668 30.2309 31.8968 30.5202C31.7326 30.9658 31.6388 31.4505 31.6388 31.9587C31.6388 32.9359 31.975 33.835 32.5379 34.5543C32.0923 35.1094 31.4356 35.4924 30.6929 35.5784C30.3645 35.1563 29.872 34.8592 29.3247 34.781L29.3012 34.8905C29.8016 34.9686 30.2472 35.2188 30.5599 35.5941C30.5052 35.5941 30.4427 35.6019 30.388 35.6019C29.9814 35.6019 29.5983 35.5159 29.2465 35.3517C29.2465 35.3908 29.2465 35.4299 29.2465 35.4768C29.5983 35.6253 29.9814 35.7113 30.388 35.7113C30.4739 35.7113 30.5599 35.7035 30.6459 35.6957C30.8961 36.0397 31.0447 36.4541 31.0447 36.9075C31.0447 37.2515 30.9587 37.5799 30.8023 37.8691H30.9274C31.0759 37.5799 31.1541 37.2515 31.1541 36.9075C31.1541 36.4541 31.0134 36.0241 30.771 35.6801C31.5137 35.5784 32.1626 35.1954 32.6161 34.6403C32.9914 35.0859 33.4526 35.4534 33.9842 35.7192C33.4682 36.1179 33.1321 36.7355 33.1321 37.4391C33.1321 37.5877 33.1477 37.7284 33.1712 37.8613C33.2103 37.8457 33.2415 37.8222 33.2728 37.8066C33.2493 37.6893 33.2415 37.5642 33.2415 37.4391C33.2415 36.7511 33.5777 36.1492 34.0937 35.7739C34.2501 35.8443 34.4142 35.9068 34.5862 35.9615C34.594 35.9224 34.6019 35.8912 34.6019 35.8521C34.4846 35.8052 34.3517 35.7583 34.2188 35.6957ZM32.6239 34.4605C32.0845 33.7725 31.7639 32.9047 31.7639 31.9587C31.7639 31.4818 31.8499 31.0127 31.9985 30.5905C32.6943 31.0909 33.1555 31.9118 33.1555 32.8343C33.1555 33.4441 32.9601 34.007 32.6239 34.4605Z" fill="#933562"/>
</g>
<path d="M33.1555 37.9472H30.9352C30.8961 37.9472 30.857 37.9159 30.857 37.869C30.857 37.8221 30.8883 37.7908 30.9352 37.7908H33.1555C33.1946 37.7908 33.2337 37.8221 33.2337 37.869C33.2337 37.9159 33.2024 37.9472 33.1555 37.9472Z" fill="white"/>
<path d="M33.0303 28.6513C33.0225 28.6513 33.0225 28.6513 33.0147 28.6513C32.9756 28.6435 32.9522 28.6044 32.96 28.5653C33.3352 26.8063 34.3672 24.7658 34.375 24.7423C34.3907 24.7032 34.4376 24.6876 34.4767 24.711C34.5158 24.7267 34.5314 24.7736 34.5079 24.8127C34.5001 24.8361 33.476 26.8532 33.1007 28.5966C33.1007 28.6279 33.0694 28.6513 33.0303 28.6513Z" fill="white"/>
<path d="M30.9898 29.1286C30.9585 29.1286 30.9272 29.113 30.9194 29.0817C30.4191 27.7136 28.7695 26.3063 28.7538 26.2907C28.7226 26.2672 28.7147 26.2203 28.746 26.189C28.7695 26.1578 28.8164 26.15 28.8476 26.1812C28.918 26.236 30.5441 27.6276 31.0523 29.0348C31.068 29.0739 31.0445 29.113 31.0054 29.1286C31.0054 29.1286 30.9976 29.1286 30.9898 29.1286Z" fill="white"/>
<path d="M37.9246 39.6363H25.9786C25.9395 39.6363 25.9005 39.605 25.9005 39.5581V21.8738C25.9005 21.8347 25.9317 21.7956 25.9786 21.7956H37.9167C37.9558 21.7956 37.9949 21.8269 37.9949 21.8738V39.5581C37.9949 39.5972 37.9637 39.6363 37.9246 39.6363ZM26.0568 39.4799H37.8464V21.9441H26.0568V39.4799Z" fill="white"/>
<path d="M26.5806 21.2792H25.3922V22.4676H26.5806V21.2792Z" fill="white"/>
<path d="M38.5188 21.2792H37.3304V22.4676H38.5188V21.2792Z" fill="white"/>
<path d="M26.5806 38.9636H25.3922V40.152H26.5806V38.9636Z" fill="white"/>
<path d="M38.5188 38.9636H37.3304V40.152H38.5188V38.9636Z" fill="white"/>
<path d="M31.8422 22.3193C32.0883 22.3193 32.2878 22.1198 32.2878 21.8737C32.2878 21.6276 32.0883 21.428 31.8422 21.428C31.5961 21.428 31.3966 21.6276 31.3966 21.8737C31.3966 22.1198 31.5961 22.3193 31.8422 22.3193Z" fill="white"/>
<path d="M31.8422 40.0034C32.0883 40.0034 32.2878 39.8039 32.2878 39.5577C32.2878 39.3116 32.0883 39.1121 31.8422 39.1121C31.5961 39.1121 31.3966 39.3116 31.3966 39.5577C31.3966 39.8039 31.5961 40.0034 31.8422 40.0034Z" fill="white"/>
<path d="M25.9787 31.1613C26.2248 31.1613 26.4243 30.9618 26.4243 30.7157C26.4243 30.4696 26.2248 30.2701 25.9787 30.2701C25.7326 30.2701 25.5331 30.4696 25.5331 30.7157C25.5331 30.9618 25.7326 31.1613 25.9787 31.1613Z" fill="white"/>
<path d="M37.9244 31.1613C38.1705 31.1613 38.37 30.9618 38.37 30.7157C38.37 30.4696 38.1705 30.2701 37.9244 30.2701C37.6783 30.2701 37.4788 30.4696 37.4788 30.7157C37.4788 30.9618 37.6783 31.1613 37.9244 31.1613Z" fill="white"/>
<path d="M12 44.7726L16.6674 34.617H18.4655L23.1329 44.7726H20.8734L19.9118 42.521H15.1819L14.2203 44.7726H12ZM17.5508 37.025L15.9246 40.8323H19.1848L17.5508 37.025Z" fill="#CED5EA"/>
<path d="M12.9771 44.7726L17.6445 34.617H19.4426L24.1178 44.7726H21.8584L20.8968 42.521H16.1669L15.2053 44.7726H12.9771ZM18.5279 37.025L16.9018 40.8323H20.1619L18.5279 37.025Z" fill="white"/>
<path d="M48.5179 42.0984H33.6011C33.2571 42.0984 32.9835 42.3799 32.9835 42.7161V44.2328C32.9835 44.5768 33.2649 44.8504 33.6011 44.8504H48.5257C48.8697 44.8504 49.1433 44.5689 49.1433 44.2328V42.7161C49.1433 42.3721 48.8619 42.0984 48.5179 42.0984Z" fill="#2C90D2"/>
<path d="M42.3103 42.0984H27.3857C27.0417 42.0984 26.7681 42.3799 26.7681 42.7161V44.2328C26.7681 44.5768 27.0495 44.8504 27.3857 44.8504H42.3103C42.6543 44.8504 42.9279 44.5689 42.9279 44.2328V42.7161C42.9279 42.3721 42.6543 42.0984 42.3103 42.0984Z" fill="#5CBEFF"/>
<path d="M17.027 17.3231L16.6361 16.7055L16.6126 16.299H16.3781H16.1826L15.5337 17.3231C15.4477 17.456 15.4399 17.6358 15.5025 17.7766L15.7526 18.3238H16.8081L17.0582 17.7766C17.1208 17.628 17.113 17.456 17.027 17.3231ZM16.2764 17.7062C16.1748 17.7062 16.0966 17.6124 16.0966 17.4951C16.0966 17.4247 16.1279 17.3622 16.1826 17.3231V17.0026H16.3781V17.3231C16.425 17.3622 16.4641 17.4247 16.4641 17.4951C16.4563 17.6124 16.3781 17.7062 16.2764 17.7062Z" fill="#490F2B"/>
<path d="M16.8238 18.5355H15.7371C15.612 18.5355 15.5026 18.6527 15.5026 18.8013V19.2391H17.0583V18.8013C17.0583 18.6527 16.9489 18.5355 16.8238 18.5355Z" fill="#490F2B"/>
<path d="M17.9181 15.3999C17.8478 15.3999 17.7852 15.4468 17.7461 15.5094H16.5344V15.4938C16.5344 15.4156 16.4796 15.3452 16.4093 15.3452H16.1513C16.0809 15.3452 16.0262 15.4078 16.0262 15.4938V15.5094H14.8769V15.3999H14.6424C14.5251 15.3999 14.4313 15.5094 14.4313 15.6423C14.4313 15.7752 14.5251 15.8847 14.6424 15.8847H14.8769V15.7752H15.4476C14.9942 16.0957 14.6893 16.6743 14.6893 17.331H14.9238C14.9238 16.5726 15.4007 15.9394 16.0184 15.7987C16.0262 15.869 16.0731 15.9316 16.1435 15.9316H16.4014C16.464 15.9316 16.5187 15.8768 16.5265 15.7987C17.152 15.9394 17.6211 16.5726 17.6211 17.331H17.8556C17.8556 16.6743 17.5507 16.0957 17.0972 15.7752H17.7305C17.7696 15.8377 17.8321 15.8847 17.9025 15.8847H18.137V15.3921H17.9181V15.3999Z" fill="#490F2B"/>
<path d="M17.2616 17.3231L16.6127 16.299V17.3309C16.6596 17.37 16.6987 17.4326 16.6987 17.5029C16.6987 17.6202 16.6205 17.714 16.5189 17.714C16.4172 17.714 16.339 17.6202 16.339 17.5029C16.339 17.4326 16.3703 17.37 16.425 17.3309V16.299L15.7761 17.3231C15.6901 17.456 15.6823 17.6358 15.7449 17.7766L15.9951 18.3238H17.0505L17.3007 17.7766C17.3554 17.628 17.3476 17.456 17.2616 17.3231Z" fill="#78224B"/>
<path d="M17.0584 18.5355H15.9716C15.8466 18.5355 15.7371 18.6527 15.7371 18.8013V19.2391H17.2929V18.8013C17.2929 18.6527 17.1834 18.5355 17.0584 18.5355Z" fill="#78224B"/>
<path d="M18.1528 15.3999C18.0824 15.3999 18.0199 15.4468 17.9808 15.5094H16.769V15.4938C16.769 15.4156 16.7143 15.3452 16.6439 15.3452H16.3859C16.3155 15.3452 16.2608 15.4078 16.2608 15.4938V15.5094H15.049C15.0099 15.4468 14.9474 15.3999 14.877 15.3999C14.7597 15.3999 14.6659 15.5094 14.6659 15.6423C14.6659 15.7752 14.7597 15.8847 14.877 15.8847C14.9474 15.8847 15.0099 15.8377 15.049 15.7752H15.6823C15.2288 16.0957 14.9239 16.6743 14.9239 17.331H15.1585C15.1585 16.5726 15.6354 15.9394 16.253 15.7987C16.2608 15.869 16.3077 15.9316 16.3781 15.9316H16.6361C16.6986 15.9316 16.7533 15.8768 16.7612 15.7987C17.3866 15.9394 17.8557 16.5726 17.8557 17.331H18.0902C18.0902 16.6743 17.7853 16.0957 17.3319 15.7752H17.9651C18.0042 15.8377 18.0668 15.8847 18.1371 15.8847C18.2544 15.8847 18.3482 15.7752 18.3482 15.6423C18.3639 15.5094 18.27 15.3999 18.1528 15.3999Z" fill="#78224B"/>
</svg>
