<svg width="68" height="68" viewBox="0 0 68 68" fill="none" xmlns="http://www.w3.org/2000/svg">
<rect width="68" height="68" fill="white"/>
<path d="M21.4478 22.078H22.4094V22.25C23.7932 22.7504 24.8018 24.2983 24.8018 26.1356C24.8018 27.9728 23.7932 29.5286 22.4094 30.0289V30.2009H21.4478C19.595 30.2009 18.0939 28.3793 18.0939 26.1434C18.0939 23.9074 19.6028 22.078 21.4478 22.078Z" fill="#581435"/>
<path d="M22.4094 30.1931C24.2617 30.1931 25.7633 28.3765 25.7633 26.1356C25.7633 23.8946 24.2617 22.078 22.4094 22.078C20.5571 22.078 19.0555 23.8946 19.0555 26.1356C19.0555 28.3765 20.5571 30.1931 22.4094 30.1931Z" fill="#8B315C"/>
<path d="M19.0631 26.2139C19.0162 26.2139 18.985 26.1826 18.985 26.1357C18.985 23.8607 20.5251 22 22.4092 22C22.4562 22 22.4874 22.0313 22.4874 22.0782C22.4874 22.1251 22.4562 22.1564 22.4092 22.1564C20.6111 22.1564 19.1413 23.9467 19.1413 26.1357C19.1413 26.1826 19.1022 26.2139 19.0631 26.2139Z" fill="white"/>
<path d="M54.0567 46.4391L29.7818 45.1335C29.2658 45.1022 28.8514 44.6019 28.8514 44.0077V26.9957C28.8514 26.4015 29.2658 25.9012 29.7818 25.8699L54.0567 24.5643C54.729 24.5252 55.2685 25.049 55.2685 25.7292V45.2664C55.2685 45.9544 54.7212 46.4704 54.0567 46.4391Z" fill="#E78C55"/>
<path d="M52.7042 46.4391L28.4293 45.1335C27.9133 45.1022 27.4989 44.6019 27.4989 44.0077V26.9957C27.4989 26.4015 27.9133 25.9012 28.4293 25.8699L52.7042 24.5643C53.3766 24.5252 53.916 25.049 53.916 25.7292V45.2664C53.9238 45.9544 53.3766 46.4704 52.7042 46.4391Z" fill="#FC9353"/>
<path d="M52.7041 24.5721L48.5136 24.7988V46.2202L52.7041 46.4469C53.3764 46.486 53.9159 45.9622 53.9159 45.282V25.737C53.9237 25.0568 53.3764 24.533 52.7041 24.5721Z" fill="#FFB283"/>
<path d="M47.8961 46.5329L44.9174 45.8292C44.7767 45.798 44.6516 45.9231 44.6829 46.0638L45.3865 49.0424C45.4177 49.191 45.6054 49.2457 45.7148 49.1363L46.2699 48.5812L47.7319 50.0432C47.8101 50.1213 47.9273 50.1213 48.0055 50.0432L48.8968 49.1519C48.9749 49.0737 48.9749 48.9564 48.8968 48.8783L47.4348 47.4163L47.9899 46.8612C48.0993 46.7518 48.0446 46.572 47.8961 46.5329Z" fill="#FDDC61"/>
<path d="M52.7042 24.5721L28.4293 25.8699C27.9133 25.9012 27.4989 26.4015 27.4989 26.9957V28.7391L53.9238 27.7384V25.737C53.9238 25.0568 53.3766 24.533 52.7042 24.5721Z" fill="#D6763C"/>
<path d="M53.9237 40.1295C53.8846 40.1295 53.8455 40.0982 53.8455 40.0513V25.7365C53.8455 25.6974 53.8768 25.6583 53.9237 25.6583C53.9706 25.6583 54.0018 25.6896 54.0018 25.7365V40.0591C53.994 40.0982 53.9628 40.1295 53.9237 40.1295Z" fill="#F1F5FE"/>
<path d="M27.499 28.8172C27.4599 28.8172 27.4286 28.7859 27.4208 28.7468C27.4208 28.7078 27.452 28.6687 27.4911 28.6687L44.253 28.0354C44.292 28.0354 44.3311 28.0667 44.3311 28.1058C44.3311 28.1449 44.2999 28.1839 44.2608 28.1839L27.499 28.8172Z" fill="#F1F5FE"/>
<path d="M38.1002 39.3403C38.1002 39.3403 37.8969 34.7433 36.4115 32.7028C36.3646 32.6402 36.2552 32.6637 36.2473 32.7419C36.1144 33.4924 35.8017 36.2287 37.3966 39.3403" fill="#6AD175"/>
<path d="M38.5224 39.6609C38.5224 39.6609 38.5771 35.9786 40.4847 33.4847C40.5394 33.4143 40.6489 33.4456 40.6489 33.5316C40.6958 34.157 40.7974 35.8379 40.5629 36.479C40.2658 37.2686 38.9758 38.5586 38.9133 39.6609H38.5224Z" fill="#6AD175"/>
<path d="M38.3191 39.6609C38.3191 39.6609 37.4044 37.7454 37.506 35.2671C37.5842 33.4299 37.9282 32.3588 38.1002 31.9367C38.1314 31.8585 38.2487 31.8585 38.2722 31.9445C38.5145 32.7106 39.2103 35.4 38.7725 39.6687" fill="#3E9F48"/>
<path d="M38.3582 38.2457C38.3192 38.2457 38.2879 38.2223 38.2879 38.1832C37.9204 35.4703 38.1237 32.4056 38.1237 32.3744C38.1237 32.3353 38.1628 32.304 38.2019 32.304C38.241 32.304 38.2722 32.3431 38.2722 32.3822C38.2722 32.4135 38.069 35.4625 38.4364 38.1675C38.4442 38.2066 38.413 38.2457 38.3739 38.2535C38.3661 38.2457 38.3661 38.2457 38.3582 38.2457Z" fill="white"/>
<path d="M37.5919 39.1211C37.5919 39.1211 36.9821 36.5411 34.6914 35.0401C34.6601 35.0166 34.6132 35.0479 34.621 35.087C34.6914 35.4544 34.9259 36.6662 35.1683 36.9789C35.4497 37.3464 36.0752 37.2057 36.169 37.5262C36.2628 37.8467 36.0517 38.3862 37.0602 39.0429" fill="#3E9F48"/>
<path d="M39.4213 38.7775H36.4817C36.3957 38.7775 36.3254 38.84 36.3097 38.9182L35.309 43.9061C35.0667 45.1022 35.6608 46.3219 36.7476 46.8691H39.1555C40.25 46.314 40.8364 45.1022 40.594 43.9061L39.5933 38.9182C39.5777 38.8322 39.5073 38.7775 39.4213 38.7775Z" fill="white"/>
<g opacity="0.5">
<path opacity="0.5" d="M39.4213 38.7775H38.2486L39.2806 43.9139C39.5229 45.1101 38.9288 46.3297 37.8421 46.8769H39.1555C40.25 46.3219 40.8364 45.1101 40.594 43.9139L39.5933 38.926C39.5777 38.8322 39.5073 38.7775 39.4213 38.7775Z" fill="#999999"/>
</g>
<path d="M36.6304 46.8766H39.2651C39.4996 46.8766 39.6872 47.0643 39.6872 47.2988H36.2004C36.2082 47.0643 36.3959 46.8766 36.6304 46.8766Z" fill="#8B315C"/>
<path d="M36.2395 47.2991H39.6716C39.9062 47.2991 40.0938 47.4867 40.0938 47.7212H35.8095C35.8095 47.4867 36.005 47.2991 36.2395 47.2991Z" fill="#651F40"/>
<g opacity="0.5">
<path d="M40.2188 44.6957C40.3517 44.6097 40.5002 44.5472 40.6488 44.4924C40.6488 44.4534 40.6488 44.4143 40.6488 44.3752C40.4533 44.4377 40.2657 44.5315 40.0937 44.641C39.5464 44.383 39.0695 44.0077 38.6943 43.5465C39.0539 43.0696 39.265 42.4676 39.265 41.8265C39.265 40.8571 38.7803 39.9971 38.0376 39.4733C38.1314 39.2231 38.2565 38.9886 38.3972 38.7697H38.2643C38.1392 38.9729 38.0297 39.184 37.9437 39.4107C37.4981 39.1215 36.9587 38.9495 36.388 38.9495C36.3567 38.9495 36.3254 38.9495 36.2941 38.9495L36.2707 39.0667C36.3098 39.0667 36.3489 39.0667 36.388 39.0667C36.943 39.0667 37.4668 39.2309 37.8968 39.5202C37.7326 39.9658 37.6388 40.4505 37.6388 40.9587C37.6388 41.9359 37.975 42.835 38.5379 43.5543C38.0923 44.1094 37.4356 44.4924 36.6929 44.5784C36.3645 44.1563 35.872 43.8592 35.3247 43.781L35.3012 43.8905C35.8016 43.9686 36.2472 44.2188 36.5599 44.5941C36.5052 44.5941 36.4427 44.6019 36.388 44.6019C35.9814 44.6019 35.5983 44.5159 35.2465 44.3517C35.2465 44.3908 35.2465 44.4299 35.2465 44.4768C35.5983 44.6253 35.9814 44.7113 36.388 44.7113C36.4739 44.7113 36.5599 44.7035 36.6459 44.6957C36.8961 45.0397 37.0447 45.4541 37.0447 45.9075C37.0447 46.2515 36.9587 46.5799 36.8023 46.8691H36.9274C37.0759 46.5799 37.1541 46.2515 37.1541 45.9075C37.1541 45.4541 37.0134 45.0241 36.771 44.6801C37.5137 44.5784 38.1626 44.1954 38.6161 43.6403C38.9914 44.0859 39.4526 44.4534 39.9842 44.7192C39.4682 45.1179 39.1321 45.7355 39.1321 46.4391C39.1321 46.5877 39.1477 46.7284 39.1712 46.8613C39.2103 46.8457 39.2415 46.8222 39.2728 46.8066C39.2493 46.6893 39.2415 46.5642 39.2415 46.4391C39.2415 45.7511 39.5777 45.1492 40.0937 44.7739C40.2501 44.8443 40.4142 44.9068 40.5862 44.9615C40.594 44.9224 40.6019 44.8912 40.6019 44.8521C40.4846 44.8052 40.3517 44.7583 40.2188 44.6957ZM38.6239 43.4605C38.0845 42.7725 37.7639 41.9047 37.7639 40.9587C37.7639 40.4818 37.8499 40.0127 37.9985 39.5905C38.6943 40.0909 39.1555 40.9118 39.1555 41.8343C39.1555 42.4441 38.9601 43.007 38.6239 43.4605Z" fill="#933562"/>
</g>
<path d="M39.1555 46.9472H36.9352C36.8961 46.9472 36.857 46.9159 36.857 46.869C36.857 46.8221 36.8883 46.7908 36.9352 46.7908H39.1555C39.1946 46.7908 39.2337 46.8221 39.2337 46.869C39.2337 46.9159 39.2024 46.9472 39.1555 46.9472Z" fill="white"/>
<path d="M39.0303 37.6513C39.0225 37.6513 39.0225 37.6513 39.0147 37.6513C38.9756 37.6435 38.9521 37.6044 38.96 37.5653C39.3352 35.8063 40.3672 33.7658 40.375 33.7423C40.3907 33.7032 40.4376 33.6876 40.4767 33.711C40.5157 33.7267 40.5314 33.7736 40.5079 33.8127C40.5001 33.8361 39.476 35.8532 39.1007 37.5966C39.1007 37.6279 39.0694 37.6513 39.0303 37.6513Z" fill="white"/>
<path d="M36.9898 38.1286C36.9585 38.1286 36.9272 38.113 36.9194 38.0817C36.4191 36.7136 34.7695 35.3063 34.7538 35.2907C34.7226 35.2672 34.7147 35.2203 34.746 35.189C34.7695 35.1578 34.8164 35.15 34.8476 35.1812C34.918 35.236 36.5442 36.6276 37.0523 38.0348C37.068 38.0739 37.0445 38.113 37.0054 38.1286C37.0054 38.1286 36.9976 38.1286 36.9898 38.1286Z" fill="white"/>
<path d="M43.9246 48.6363H31.9786C31.9395 48.6363 31.9005 48.605 31.9005 48.5581V30.8738C31.9005 30.8347 31.9317 30.7956 31.9786 30.7956H43.9167C43.9558 30.7956 43.9949 30.8269 43.9949 30.8738V48.5581C43.9949 48.5972 43.9636 48.6363 43.9246 48.6363ZM32.0568 48.4799H43.8464V30.9441H32.0568V48.4799Z" fill="white"/>
<path d="M32.5806 30.2792H31.3922V31.4676H32.5806V30.2792Z" fill="white"/>
<path d="M44.5188 30.2792H43.3304V31.4676H44.5188V30.2792Z" fill="white"/>
<path d="M32.5806 47.9636H31.3922V49.152H32.5806V47.9636Z" fill="white"/>
<path d="M44.5188 47.9636H43.3304V49.152H44.5188V47.9636Z" fill="white"/>
<path d="M37.8422 31.3193C38.0883 31.3193 38.2878 31.1198 38.2878 30.8737C38.2878 30.6276 38.0883 30.428 37.8422 30.428C37.5961 30.428 37.3966 30.6276 37.3966 30.8737C37.3966 31.1198 37.5961 31.3193 37.8422 31.3193Z" fill="white"/>
<path d="M37.8422 49.0034C38.0883 49.0034 38.2878 48.8039 38.2878 48.5577C38.2878 48.3116 38.0883 48.1121 37.8422 48.1121C37.5961 48.1121 37.3966 48.3116 37.3966 48.5577C37.3966 48.8039 37.5961 49.0034 37.8422 49.0034Z" fill="white"/>
<path d="M31.9787 40.1613C32.2248 40.1613 32.4243 39.9618 32.4243 39.7157C32.4243 39.4696 32.2248 39.2701 31.9787 39.2701C31.7326 39.2701 31.5331 39.4696 31.5331 39.7157C31.5331 39.9618 31.7326 40.1613 31.9787 40.1613Z" fill="white"/>
<path d="M43.9244 40.1613C44.1705 40.1613 44.37 39.9618 44.37 39.7157C44.37 39.4696 44.1705 39.2701 43.9244 39.2701C43.6783 39.2701 43.4788 39.4696 43.4788 39.7157C43.4788 39.9618 43.6783 40.1613 43.9244 40.1613Z" fill="white"/>
<path d="M18 53.7726L22.6674 43.617H24.4655L29.1329 53.7726H26.8734L25.9118 51.521H21.1819L20.2203 53.7726H18ZM23.5508 46.025L21.9246 49.8323H25.1848L23.5508 46.025Z" fill="#CED5EA"/>
<path d="M18.9771 53.7726L23.6445 43.617H25.4426L30.1178 53.7726H27.8584L26.8968 51.521H22.1669L21.2053 53.7726H18.9771ZM24.5279 46.025L22.9018 49.8323H26.1619L24.5279 46.025Z" fill="white"/>
<path d="M54.5179 51.0984H39.6011C39.2571 51.0984 38.9835 51.3799 38.9835 51.7161V53.2328C38.9835 53.5768 39.2649 53.8504 39.6011 53.8504H54.5257C54.8697 53.8504 55.1433 53.5689 55.1433 53.2328V51.7161C55.1433 51.3721 54.8619 51.0984 54.5179 51.0984Z" fill="#2C90D2"/>
<path d="M48.3103 51.0984H33.3857C33.0417 51.0984 32.7681 51.3799 32.7681 51.7161V53.2328C32.7681 53.5768 33.0495 53.8504 33.3857 53.8504H48.3103C48.6543 53.8504 48.9279 53.5689 48.9279 53.2328V51.7161C48.9279 51.3721 48.6543 51.0984 48.3103 51.0984Z" fill="#5CBEFF"/>
<path d="M23.027 26.3231L22.6361 25.7055L22.6126 25.299H22.3781H22.1826L21.5337 26.3231C21.4477 26.456 21.4399 26.6358 21.5025 26.7766L21.7526 27.3238H22.8081L23.0582 26.7766C23.1208 26.628 23.113 26.456 23.027 26.3231ZM22.2764 26.7062C22.1748 26.7062 22.0966 26.6124 22.0966 26.4951C22.0966 26.4247 22.1279 26.3622 22.1826 26.3231V26.0026H22.3781V26.3231C22.425 26.3622 22.4641 26.4247 22.4641 26.4951C22.4563 26.6124 22.3781 26.7062 22.2764 26.7062Z" fill="#490F2B"/>
<path d="M22.8238 27.5355H21.7371C21.612 27.5355 21.5026 27.6527 21.5026 27.8013V28.2391H23.0583V27.8013C23.0583 27.6527 22.9489 27.5355 22.8238 27.5355Z" fill="#490F2B"/>
<path d="M23.9181 24.3999C23.8478 24.3999 23.7852 24.4468 23.7461 24.5094H22.5344V24.4938C22.5344 24.4156 22.4796 24.3452 22.4093 24.3452H22.1513C22.0809 24.3452 22.0262 24.4078 22.0262 24.4938V24.5094H20.8769V24.3999H20.6424C20.5251 24.3999 20.4313 24.5094 20.4313 24.6423C20.4313 24.7752 20.5251 24.8847 20.6424 24.8847H20.8769V24.7752H21.4476C20.9942 25.0957 20.6893 25.6743 20.6893 26.331H20.9238C20.9238 25.5726 21.4007 24.9394 22.0184 24.7987C22.0262 24.869 22.0731 24.9316 22.1435 24.9316H22.4014C22.464 24.9316 22.5187 24.8768 22.5265 24.7987C23.152 24.9394 23.6211 25.5726 23.6211 26.331H23.8556C23.8556 25.6743 23.5507 25.0957 23.0972 24.7752H23.7305C23.7696 24.8377 23.8321 24.8847 23.9025 24.8847H24.137V24.3921H23.9181V24.3999Z" fill="#490F2B"/>
<path d="M23.2616 26.3231L22.6127 25.299V26.3309C22.6596 26.37 22.6987 26.4326 22.6987 26.5029C22.6987 26.6202 22.6205 26.714 22.5189 26.714C22.4172 26.714 22.3391 26.6202 22.3391 26.5029C22.3391 26.4326 22.3703 26.37 22.4251 26.3309V25.299L21.7762 26.3231C21.6902 26.456 21.6823 26.6358 21.7449 26.7766L21.9951 27.3238H23.0505L23.3007 26.7766C23.3554 26.628 23.3476 26.456 23.2616 26.3231Z" fill="#78224B"/>
<path d="M23.0584 27.5355H21.9717C21.8466 27.5355 21.7371 27.6527 21.7371 27.8013V28.2391H23.2929V27.8013C23.2929 27.6527 23.1835 27.5355 23.0584 27.5355Z" fill="#78224B"/>
<path d="M24.1528 24.3999C24.0824 24.3999 24.0199 24.4468 23.9808 24.5094H22.769V24.4938C22.769 24.4156 22.7142 24.3452 22.6439 24.3452H22.3859C22.3155 24.3452 22.2608 24.4078 22.2608 24.4938V24.5094H21.049C21.0099 24.4468 20.9474 24.3999 20.877 24.3999C20.7597 24.3999 20.6659 24.5094 20.6659 24.6423C20.6659 24.7752 20.7597 24.8847 20.877 24.8847C20.9474 24.8847 21.0099 24.8377 21.049 24.7752H21.6823C21.2288 25.0957 20.9239 25.6743 20.9239 26.331H21.1585C21.1585 25.5726 21.6354 24.9394 22.253 24.7987C22.2608 24.869 22.3077 24.9316 22.3781 24.9316H22.6361C22.6986 24.9316 22.7533 24.8768 22.7612 24.7987C23.3866 24.9394 23.8557 25.5726 23.8557 26.331H24.0902C24.0902 25.6743 23.7853 25.0957 23.3319 24.7752H23.9651C24.0042 24.8377 24.0668 24.8847 24.1371 24.8847C24.2544 24.8847 24.3482 24.7752 24.3482 24.6423C24.3638 24.5094 24.27 24.3999 24.1528 24.3999Z" fill="#78224B"/>
<rect x="4" y="4" width="60" height="59.8477" rx="10" fill="#2879F3"/>
<path d="M19.4478 17.078H20.4094V17.25C21.7932 17.7504 22.8018 19.2983 22.8018 21.1356C22.8018 22.9728 21.7932 24.5286 20.4094 25.0289V25.2009H19.4478C17.595 25.2009 16.0939 23.3793 16.0939 21.1434C16.0939 18.9074 17.6028 17.078 19.4478 17.078Z" fill="#581435"/>
<path d="M20.4094 25.1931C22.2617 25.1931 23.7633 23.3765 23.7633 21.1356C23.7633 18.8946 22.2617 17.078 20.4094 17.078C18.5571 17.078 17.0555 18.8946 17.0555 21.1356C17.0555 23.3765 18.5571 25.1931 20.4094 25.1931Z" fill="#8B315C"/>
<path d="M17.0631 21.2139C17.0162 21.2139 16.985 21.1826 16.985 21.1357C16.985 18.8607 18.5251 17 20.4092 17C20.4562 17 20.4874 17.0313 20.4874 17.0782C20.4874 17.1251 20.4562 17.1564 20.4092 17.1564C18.6111 17.1564 17.1413 18.9467 17.1413 21.1357C17.1413 21.1826 17.1022 21.2139 17.0631 21.2139Z" fill="white"/>
<path d="M52.0567 41.4391L27.7818 40.1335C27.2658 40.1022 26.8514 39.6019 26.8514 39.0077V21.9957C26.8514 21.4015 27.2658 20.9012 27.7818 20.8699L52.0567 19.5643C52.729 19.5252 53.2685 20.049 53.2685 20.7292V40.2664C53.2685 40.9544 52.7212 41.4704 52.0567 41.4391Z" fill="#E78C55"/>
<path d="M50.7042 41.4391L26.4293 40.1335C25.9133 40.1022 25.4989 39.6019 25.4989 39.0077V21.9957C25.4989 21.4015 25.9133 20.9012 26.4293 20.8699L50.7042 19.5643C51.3766 19.5252 51.916 20.049 51.916 20.7292V40.2664C51.9238 40.9544 51.3766 41.4704 50.7042 41.4391Z" fill="#FC9353"/>
<path d="M50.7041 19.5721L46.5136 19.7988V41.2202L50.7041 41.4469C51.3764 41.486 51.9159 40.9622 51.9159 40.282V20.737C51.9237 20.0568 51.3764 19.533 50.7041 19.5721Z" fill="#FFB283"/>
<path d="M45.8961 41.5329L42.9174 40.8292C42.7767 40.798 42.6516 40.9231 42.6829 41.0638L43.3865 44.0424C43.4177 44.191 43.6054 44.2457 43.7148 44.1363L44.2699 43.5812L45.7319 45.0432C45.8101 45.1213 45.9273 45.1213 46.0055 45.0432L46.8968 44.1519C46.9749 44.0737 46.9749 43.9564 46.8968 43.8783L45.4348 42.4163L45.9899 41.8612C46.0993 41.7518 46.0446 41.572 45.8961 41.5329Z" fill="#FDDC61"/>
<path d="M50.7042 19.5721L26.4293 20.8699C25.9133 20.9012 25.4989 21.4015 25.4989 21.9957V23.7391L51.9238 22.7384V20.737C51.9238 20.0568 51.3766 19.533 50.7042 19.5721Z" fill="#D6763C"/>
<path d="M51.9237 35.1295C51.8846 35.1295 51.8455 35.0982 51.8455 35.0513V20.7365C51.8455 20.6974 51.8768 20.6583 51.9237 20.6583C51.9706 20.6583 52.0018 20.6896 52.0018 20.7365V35.0591C51.994 35.0982 51.9628 35.1295 51.9237 35.1295Z" fill="#F1F5FE"/>
<path d="M25.499 23.8172C25.4599 23.8172 25.4286 23.7859 25.4208 23.7468C25.4208 23.7078 25.452 23.6687 25.4911 23.6687L42.253 23.0354C42.292 23.0354 42.3311 23.0667 42.3311 23.1058C42.3311 23.1449 42.2999 23.1839 42.2608 23.1839L25.499 23.8172Z" fill="#F1F5FE"/>
<path d="M36.1002 34.3403C36.1002 34.3403 35.8969 29.7433 34.4115 27.7028C34.3646 27.6402 34.2552 27.6637 34.2473 27.7419C34.1144 28.4924 33.8017 31.2287 35.3966 34.3403" fill="#6AD175"/>
<path d="M36.5224 34.6609C36.5224 34.6609 36.5771 30.9786 38.4847 28.4847C38.5394 28.4143 38.6489 28.4456 38.6489 28.5316C38.6958 29.157 38.7974 30.8379 38.5629 31.479C38.2658 32.2686 36.9758 33.5586 36.9133 34.6609H36.5224Z" fill="#6AD175"/>
<path d="M36.3191 34.6609C36.3191 34.6609 35.4044 32.7454 35.506 30.2671C35.5842 28.4299 35.9282 27.3588 36.1002 26.9367C36.1314 26.8585 36.2487 26.8585 36.2722 26.9445C36.5145 27.7106 37.2103 30.4 36.7725 34.6687" fill="#3E9F48"/>
<path d="M36.3582 33.2457C36.3192 33.2457 36.2879 33.2223 36.2879 33.1832C35.9204 30.4703 36.1237 27.4056 36.1237 27.3744C36.1237 27.3353 36.1628 27.304 36.2019 27.304C36.241 27.304 36.2722 27.3431 36.2722 27.3822C36.2722 27.4135 36.069 30.4625 36.4364 33.1675C36.4442 33.2066 36.413 33.2457 36.3739 33.2535C36.3661 33.2457 36.3661 33.2457 36.3582 33.2457Z" fill="white"/>
<path d="M35.5919 34.1211C35.5919 34.1211 34.9821 31.5411 32.6914 30.0401C32.6601 30.0166 32.6132 30.0479 32.621 30.087C32.6914 30.4544 32.9259 31.6662 33.1683 31.9789C33.4497 32.3464 34.0752 32.2057 34.169 32.5262C34.2628 32.8467 34.0517 33.3862 35.0602 34.0429" fill="#3E9F48"/>
<path d="M37.4213 33.7775H34.4817C34.3957 33.7775 34.3254 33.84 34.3097 33.9182L33.309 38.9061C33.0667 40.1022 33.6608 41.3219 34.7476 41.8691H37.1555C38.25 41.314 38.8364 40.1022 38.594 38.9061L37.5933 33.9182C37.5777 33.8322 37.5073 33.7775 37.4213 33.7775Z" fill="white"/>
<g opacity="0.5">
<path opacity="0.5" d="M37.4213 33.7775H36.2486L37.2806 38.9139C37.5229 40.1101 36.9288 41.3297 35.8421 41.8769H37.1555C38.25 41.3219 38.8364 40.1101 38.594 38.9139L37.5933 33.926C37.5777 33.8322 37.5073 33.7775 37.4213 33.7775Z" fill="#999999"/>
</g>
<path d="M34.6304 41.8766H37.2651C37.4996 41.8766 37.6872 42.0643 37.6872 42.2988H34.2004C34.2082 42.0643 34.3959 41.8766 34.6304 41.8766Z" fill="#8B315C"/>
<path d="M34.2395 42.2991H37.6716C37.9062 42.2991 38.0938 42.4867 38.0938 42.7212H33.8095C33.8095 42.4867 34.005 42.2991 34.2395 42.2991Z" fill="#651F40"/>
<g opacity="0.5">
<path d="M38.2188 39.6957C38.3517 39.6097 38.5002 39.5472 38.6488 39.4924C38.6488 39.4534 38.6488 39.4143 38.6488 39.3752C38.4533 39.4377 38.2657 39.5315 38.0937 39.641C37.5464 39.383 37.0695 39.0077 36.6943 38.5465C37.0539 38.0696 37.265 37.4676 37.265 36.8265C37.265 35.8571 36.7803 34.9971 36.0376 34.4733C36.1314 34.2231 36.2565 33.9886 36.3972 33.7697H36.2643C36.1392 33.9729 36.0297 34.184 35.9437 34.4107C35.4981 34.1215 34.9587 33.9495 34.388 33.9495C34.3567 33.9495 34.3254 33.9495 34.2941 33.9495L34.2707 34.0667C34.3098 34.0667 34.3489 34.0667 34.388 34.0667C34.943 34.0667 35.4668 34.2309 35.8968 34.5202C35.7326 34.9658 35.6388 35.4505 35.6388 35.9587C35.6388 36.9359 35.975 37.835 36.5379 38.5543C36.0923 39.1094 35.4356 39.4924 34.6929 39.5784C34.3645 39.1563 33.872 38.8592 33.3247 38.781L33.3012 38.8905C33.8016 38.9686 34.2472 39.2188 34.5599 39.5941C34.5052 39.5941 34.4427 39.6019 34.388 39.6019C33.9814 39.6019 33.5983 39.5159 33.2465 39.3517C33.2465 39.3908 33.2465 39.4299 33.2465 39.4768C33.5983 39.6253 33.9814 39.7113 34.388 39.7113C34.4739 39.7113 34.5599 39.7035 34.6459 39.6957C34.8961 40.0397 35.0447 40.4541 35.0447 40.9075C35.0447 41.2515 34.9587 41.5799 34.8023 41.8691H34.9274C35.0759 41.5799 35.1541 41.2515 35.1541 40.9075C35.1541 40.4541 35.0134 40.0241 34.771 39.6801C35.5137 39.5784 36.1626 39.1954 36.6161 38.6403C36.9914 39.0859 37.4526 39.4534 37.9842 39.7192C37.4682 40.1179 37.1321 40.7355 37.1321 41.4391C37.1321 41.5877 37.1477 41.7284 37.1712 41.8613C37.2103 41.8457 37.2415 41.8222 37.2728 41.8066C37.2493 41.6893 37.2415 41.5642 37.2415 41.4391C37.2415 40.7511 37.5777 40.1492 38.0937 39.7739C38.2501 39.8443 38.4142 39.9068 38.5862 39.9615C38.594 39.9224 38.6019 39.8912 38.6019 39.8521C38.4846 39.8052 38.3517 39.7583 38.2188 39.6957ZM36.6239 38.4605C36.0845 37.7725 35.7639 36.9047 35.7639 35.9587C35.7639 35.4818 35.8499 35.0127 35.9985 34.5905C36.6943 35.0909 37.1555 35.9118 37.1555 36.8343C37.1555 37.4441 36.9601 38.007 36.6239 38.4605Z" fill="#933562"/>
</g>
<path d="M37.1555 41.9472H34.9352C34.8961 41.9472 34.857 41.9159 34.857 41.869C34.857 41.8221 34.8883 41.7908 34.9352 41.7908H37.1555C37.1946 41.7908 37.2337 41.8221 37.2337 41.869C37.2337 41.9159 37.2024 41.9472 37.1555 41.9472Z" fill="white"/>
<path d="M37.0303 32.6513C37.0225 32.6513 37.0225 32.6513 37.0147 32.6513C36.9756 32.6435 36.9521 32.6044 36.96 32.5653C37.3352 30.8063 38.3672 28.7658 38.375 28.7423C38.3907 28.7032 38.4376 28.6876 38.4767 28.711C38.5157 28.7267 38.5314 28.7736 38.5079 28.8127C38.5001 28.8361 37.476 30.8532 37.1007 32.5966C37.1007 32.6279 37.0694 32.6513 37.0303 32.6513Z" fill="white"/>
<path d="M34.9898 33.1286C34.9585 33.1286 34.9272 33.113 34.9194 33.0817C34.4191 31.7136 32.7695 30.3063 32.7538 30.2907C32.7226 30.2672 32.7147 30.2203 32.746 30.189C32.7695 30.1578 32.8164 30.15 32.8476 30.1812C32.918 30.236 34.5442 31.6276 35.0523 33.0348C35.068 33.0739 35.0445 33.113 35.0054 33.1286C35.0054 33.1286 34.9976 33.1286 34.9898 33.1286Z" fill="white"/>
<path d="M41.9246 43.6363H29.9786C29.9395 43.6363 29.9005 43.605 29.9005 43.5581V25.8738C29.9005 25.8347 29.9317 25.7956 29.9786 25.7956H41.9167C41.9558 25.7956 41.9949 25.8269 41.9949 25.8738V43.5581C41.9949 43.5972 41.9636 43.6363 41.9246 43.6363ZM30.0568 43.4799H41.8464V25.9441H30.0568V43.4799Z" fill="white"/>
<path d="M30.5806 25.2792H29.3922V26.4676H30.5806V25.2792Z" fill="white"/>
<path d="M42.5188 25.2792H41.3304V26.4676H42.5188V25.2792Z" fill="white"/>
<path d="M30.5806 42.9636H29.3922V44.152H30.5806V42.9636Z" fill="white"/>
<path d="M42.5188 42.9636H41.3304V44.152H42.5188V42.9636Z" fill="white"/>
<path d="M35.8422 26.3193C36.0883 26.3193 36.2878 26.1198 36.2878 25.8737C36.2878 25.6276 36.0883 25.428 35.8422 25.428C35.5961 25.428 35.3966 25.6276 35.3966 25.8737C35.3966 26.1198 35.5961 26.3193 35.8422 26.3193Z" fill="white"/>
<path d="M35.8422 44.0034C36.0883 44.0034 36.2878 43.8039 36.2878 43.5577C36.2878 43.3116 36.0883 43.1121 35.8422 43.1121C35.5961 43.1121 35.3966 43.3116 35.3966 43.5577C35.3966 43.8039 35.5961 44.0034 35.8422 44.0034Z" fill="white"/>
<path d="M29.9787 35.1613C30.2248 35.1613 30.4243 34.9618 30.4243 34.7157C30.4243 34.4696 30.2248 34.2701 29.9787 34.2701C29.7326 34.2701 29.5331 34.4696 29.5331 34.7157C29.5331 34.9618 29.7326 35.1613 29.9787 35.1613Z" fill="white"/>
<path d="M41.9244 35.1613C42.1705 35.1613 42.37 34.9618 42.37 34.7157C42.37 34.4696 42.1705 34.2701 41.9244 34.2701C41.6783 34.2701 41.4788 34.4696 41.4788 34.7157C41.4788 34.9618 41.6783 35.1613 41.9244 35.1613Z" fill="white"/>
<path d="M16 48.7726L20.6674 38.617H22.4655L27.1329 48.7726H24.8734L23.9118 46.521H19.1819L18.2203 48.7726H16ZM21.5508 41.025L19.9246 44.8323H23.1848L21.5508 41.025Z" fill="#CED5EA"/>
<path d="M16.9771 48.7726L21.6445 38.617H23.4426L28.1178 48.7726H25.8584L24.8968 46.521H20.1669L19.2053 48.7726H16.9771ZM22.5279 41.025L20.9018 44.8323H24.1619L22.5279 41.025Z" fill="white"/>
<path d="M52.5179 46.0984H37.6011C37.2571 46.0984 36.9835 46.3799 36.9835 46.7161V48.2328C36.9835 48.5768 37.2649 48.8504 37.6011 48.8504H52.5257C52.8697 48.8504 53.1433 48.5689 53.1433 48.2328V46.7161C53.1433 46.3721 52.8619 46.0984 52.5179 46.0984Z" fill="#2C90D2"/>
<path d="M46.3103 46.0984H31.3857C31.0417 46.0984 30.7681 46.3799 30.7681 46.7161V48.2328C30.7681 48.5768 31.0495 48.8504 31.3857 48.8504H46.3103C46.6543 48.8504 46.9279 48.5689 46.9279 48.2328V46.7161C46.9279 46.3721 46.6543 46.0984 46.3103 46.0984Z" fill="#5CBEFF"/>
<path d="M21.027 21.3231L20.6361 20.7055L20.6126 20.299H20.3781H20.1826L19.5337 21.3231C19.4477 21.456 19.4399 21.6358 19.5025 21.7766L19.7526 22.3238H20.8081L21.0582 21.7766C21.1208 21.628 21.113 21.456 21.027 21.3231ZM20.2764 21.7062C20.1748 21.7062 20.0966 21.6124 20.0966 21.4951C20.0966 21.4247 20.1279 21.3622 20.1826 21.3231V21.0026H20.3781V21.3231C20.425 21.3622 20.4641 21.4247 20.4641 21.4951C20.4563 21.6124 20.3781 21.7062 20.2764 21.7062Z" fill="#490F2B"/>
<path d="M20.8238 22.5355H19.7371C19.612 22.5355 19.5026 22.6527 19.5026 22.8013V23.2391H21.0583V22.8013C21.0583 22.6527 20.9489 22.5355 20.8238 22.5355Z" fill="#490F2B"/>
<path d="M21.9181 19.3999C21.8478 19.3999 21.7852 19.4468 21.7461 19.5094H20.5344V19.4938C20.5344 19.4156 20.4796 19.3452 20.4093 19.3452H20.1513C20.0809 19.3452 20.0262 19.4078 20.0262 19.4938V19.5094H18.8769V19.3999H18.6424C18.5251 19.3999 18.4313 19.5094 18.4313 19.6423C18.4313 19.7752 18.5251 19.8847 18.6424 19.8847H18.8769V19.7752H19.4476C18.9942 20.0957 18.6893 20.6743 18.6893 21.331H18.9238C18.9238 20.5726 19.4007 19.9394 20.0184 19.7987C20.0262 19.869 20.0731 19.9316 20.1435 19.9316H20.4014C20.464 19.9316 20.5187 19.8768 20.5265 19.7987C21.152 19.9394 21.6211 20.5726 21.6211 21.331H21.8556C21.8556 20.6743 21.5507 20.0957 21.0972 19.7752H21.7305C21.7696 19.8377 21.8321 19.8847 21.9025 19.8847H22.137V19.3921H21.9181V19.3999Z" fill="#490F2B"/>
<path d="M21.2616 21.3231L20.6127 20.299V21.3309C20.6596 21.37 20.6987 21.4326 20.6987 21.5029C20.6987 21.6202 20.6205 21.714 20.5189 21.714C20.4172 21.714 20.3391 21.6202 20.3391 21.5029C20.3391 21.4326 20.3703 21.37 20.4251 21.3309V20.299L19.7762 21.3231C19.6902 21.456 19.6823 21.6358 19.7449 21.7766L19.9951 22.3238H21.0505L21.3007 21.7766C21.3554 21.628 21.3476 21.456 21.2616 21.3231Z" fill="#78224B"/>
<path d="M21.0584 22.5355H19.9717C19.8466 22.5355 19.7371 22.6527 19.7371 22.8013V23.2391H21.2929V22.8013C21.2929 22.6527 21.1835 22.5355 21.0584 22.5355Z" fill="#78224B"/>
<path d="M22.1528 19.3999C22.0824 19.3999 22.0199 19.4468 21.9808 19.5094H20.769V19.4938C20.769 19.4156 20.7142 19.3452 20.6439 19.3452H20.3859C20.3155 19.3452 20.2608 19.4078 20.2608 19.4938V19.5094H19.049C19.0099 19.4468 18.9474 19.3999 18.877 19.3999C18.7597 19.3999 18.6659 19.5094 18.6659 19.6423C18.6659 19.7752 18.7597 19.8847 18.877 19.8847C18.9474 19.8847 19.0099 19.8377 19.049 19.7752H19.6823C19.2288 20.0957 18.9239 20.6743 18.9239 21.331H19.1585C19.1585 20.5726 19.6354 19.9394 20.253 19.7987C20.2608 19.869 20.3077 19.9316 20.3781 19.9316H20.6361C20.6986 19.9316 20.7533 19.8768 20.7612 19.7987C21.3866 19.9394 21.8557 20.5726 21.8557 21.331H22.0902C22.0902 20.6743 21.7853 20.0957 21.3319 19.7752H21.9651C22.0042 19.8377 22.0668 19.8847 22.1371 19.8847C22.2544 19.8847 22.3482 19.7752 22.3482 19.6423C22.3638 19.5094 22.27 19.3999 22.1528 19.3999Z" fill="#78224B"/>
</svg>
