<svg width="60" height="60" viewBox="0 0 60 60" fill="none" xmlns="http://www.w3.org/2000/svg">
<rect width="60" height="59.8477" rx="10" fill="#C94886"/>
<rect width="60" height="59.8477" rx="10" fill="#C94886"/>
<path d="M54.0061 10.8759H52.2262V52.2428H54.0061C54.8183 52.2428 55.4749 51.5638 55.4749 50.724V12.3948C55.4749 11.5549 54.8183 10.8759 54.0061 10.8759Z" fill="#581435"/>
<path d="M51.8633 52.234L38.9374 50.7419C38.108 50.6436 37.434 49.8127 37.434 48.8835V14.2443C37.434 13.3151 38.0993 12.4753 38.9374 12.3859L51.8633 10.8849C52.8569 10.7688 53.6777 11.5193 53.6777 12.5557V50.5721C53.6777 51.5996 52.8569 52.3501 51.8633 52.234Z" fill="#933562"/>
<g opacity="0.5">
<g opacity="0.5">
<path opacity="0.5" d="M37.434 35.1778L53.6777 17.2819V12.5556C53.6777 12.0642 53.4963 11.6442 53.1939 11.3405L37.434 29.4061V35.1778Z" fill="#581435"/>
</g>
<g opacity="0.5">
<path opacity="0.5" d="M53.6777 23.3752L37.434 40.4312V48.8744C37.434 49.6427 37.8833 50.3396 38.5054 50.6166L53.6777 35.6066V23.3752Z" fill="#581435"/>
</g>
</g>
<g opacity="0.5">
<path opacity="0.5" d="M37.4341 14.0923C37.4341 14.137 37.4254 14.1906 37.4254 14.2352V22.5086C39.2831 22.5086 40.7865 20.6234 40.7865 18.3005C40.7865 15.9864 39.2917 14.1012 37.4341 14.0923Z" fill="#8B315C"/>
</g>
<path d="M47.8369 13.2972L42.5059 13.8422C42.0911 13.8869 41.7542 13.5474 41.7542 13.0917V12.0553L48.6577 11.2601V12.3501C48.6491 12.8237 48.2862 13.2436 47.8369 13.2972Z" fill="#581435"/>
<path d="M23.1444 50.447H11.1691C10.4519 50.447 9.87302 49.8484 9.87302 49.1068V36.7235C9.87302 35.982 10.4519 35.3834 11.1691 35.3834H23.1444C23.8616 35.3834 24.4405 35.982 24.4405 36.7235V49.1068C24.4405 49.8394 23.8616 50.447 23.1444 50.447Z" fill="#2C90D2"/>
<path d="M27.1189 50.447H15.1435C14.4264 50.447 13.8475 49.8484 13.8475 49.1068V36.7235C13.8475 35.982 14.4264 35.3834 15.1435 35.3834H27.1189C27.8361 35.3834 28.415 35.982 28.415 36.7235V49.1068C28.415 49.8394 27.8361 50.447 27.1189 50.447Z" fill="#5CBEFF"/>
<path d="M13.8475 48.2134C13.7957 48.2134 13.7611 48.1777 13.7611 48.1241V36.7236C13.7611 36.67 13.7957 36.6343 13.8475 36.6343C13.8994 36.6343 13.9339 36.67 13.9339 36.7236V48.1241C13.9339 48.1688 13.8994 48.2134 13.8475 48.2134Z" fill="white"/>
<path d="M17.2518 44.9791L20.2932 38.1263H21.4682L24.5096 44.9791H23.0321L22.4014 43.4602H19.3168L18.6861 44.9791H17.2518ZM20.8721 39.7524L19.8093 42.3166H21.9348L20.8721 39.7524Z" fill="#2C90D2"/>
<path d="M17.8911 44.9791L20.9325 38.1263H22.1076L25.149 44.9791H23.6715L23.0407 43.4602H19.9562L19.3254 44.9791H17.8911ZM21.5114 39.7524L20.4487 42.3166H22.5742L21.5114 39.7524Z" fill="#F2F2F2"/>
<path d="M24.4923 48.2939H17.2864C17.1827 48.2939 17.0963 48.2045 17.0963 48.0973V47.2754C17.0963 47.1681 17.1827 47.0788 17.2864 47.0788H24.4923C24.596 47.0788 24.6824 47.1681 24.6824 47.2754V48.0973C24.6824 48.2135 24.6047 48.2939 24.4923 48.2939Z" fill="#2C90D2"/>
<path d="M24.9762 48.2939H17.7702C17.6665 48.2939 17.5801 48.2045 17.5801 48.0973V47.2754C17.5801 47.1681 17.6665 47.0788 17.7702 47.0788H24.9762C25.0799 47.0788 25.1663 47.1681 25.1663 47.2754V48.0973C25.1663 48.2135 25.0799 48.2939 24.9762 48.2939Z" fill="#F2F2F2"/>
<path d="M40.6118 54.0476C42.7257 54.0476 44.4394 52.2755 44.4394 50.0896C44.4394 47.9036 42.7257 46.1316 40.6118 46.1316C38.4978 46.1316 36.7841 47.9036 36.7841 50.0896C36.7841 52.2755 38.4978 54.0476 40.6118 54.0476Z" fill="#2879F3"/>
<path d="M43.6704 47.6953C43.6963 47.9007 43.7136 48.1062 43.7136 48.3117C43.7136 50.6705 41.8646 52.5824 39.5836 52.5824C38.6763 52.5824 37.8382 52.2787 37.1557 51.7605C37.7691 53.1006 39.0911 54.0388 40.6204 54.0388C42.7373 54.0388 44.448 52.2697 44.448 50.0808C44.4394 49.1873 44.1543 48.3653 43.6704 47.6953Z" fill="#194FA0"/>
<path d="M33.7168 14.0923H32.7491V14.271C31.3666 14.7892 30.3557 16.3974 30.3557 18.3094C30.3557 20.2214 31.3666 21.8207 32.7491 22.3478V22.5265H33.7168C35.5744 22.5265 37.0778 20.6413 37.0778 18.3183C37.0778 15.9953 35.5744 14.0923 33.7168 14.0923Z" fill="#F2F2F2"/>
<path d="M32.7577 22.5177C34.614 22.5177 36.1188 20.6337 36.1188 18.3095C36.1188 15.9854 34.614 14.1014 32.7577 14.1014C30.9015 14.1014 29.3967 15.9854 29.3967 18.3095C29.3967 20.6337 30.9015 22.5177 32.7577 22.5177Z" fill="white"/>
<path d="M36.1102 18.3988C36.0583 18.3988 36.0238 18.3631 36.0238 18.3095C36.0238 16.0401 34.5549 14.1907 32.7491 14.1907C32.6973 14.1907 32.6627 14.1549 32.6627 14.1013C32.6627 14.0477 32.6973 14.012 32.7491 14.012C34.65 14.012 36.1966 15.9418 36.1966 18.3095C36.1966 18.3542 36.162 18.3988 36.1102 18.3988Z" fill="#913460"/>
<path d="M34.4598 16.9782C34.3907 16.8978 34.3043 16.8531 34.2179 16.8531H33.8809L32.3603 18.9528L31.5653 17.9789C31.4962 17.8896 31.3925 17.8538 31.2975 17.8628H30.9519L31.0469 18.0325C30.9432 18.1933 30.9605 18.4256 31.0815 18.5775L32.127 19.8552C32.1961 19.9356 32.2825 19.9802 32.3689 19.9802C32.4553 19.9802 32.5417 19.9356 32.6108 19.8552L34.4685 17.5768C34.5894 17.4071 34.5894 17.1391 34.4598 16.9782Z" fill="white"/>
<path d="M32.0147 19.9622C31.9283 19.9622 31.8419 19.9175 31.7728 19.8371L30.7273 18.5595C30.5977 18.3987 30.5977 18.1306 30.7273 17.9698C30.8569 17.809 31.0729 17.809 31.2112 17.9698L32.0147 18.9526L33.6304 16.9691C33.76 16.8083 33.976 16.8083 34.1143 16.9691C34.2439 17.1299 34.2439 17.398 34.1143 17.5588L32.2566 19.8371C32.1875 19.9265 32.1011 19.9622 32.0147 19.9622Z" fill="#5CBEFF"/>
<path d="M46.729 34.6419L32.9219 34.7401C32.7837 34.7401 32.6627 34.6061 32.6627 34.4453V33.391C32.6627 33.2302 32.775 33.0873 32.9219 33.0873L46.729 32.7924C46.9105 32.7924 47.0487 32.9354 47.0487 33.123V34.3113C47.0487 34.49 46.9018 34.6419 46.729 34.6419Z" fill="#F2F2F2"/>
<path d="M46.729 42.4775L32.9219 41.7359C32.7837 41.727 32.6627 41.593 32.6627 41.4232V36.6879C32.6627 36.5271 32.775 36.3931 32.9219 36.3931L46.729 36.4913C46.9105 36.4913 47.0487 36.6432 47.0487 36.8309V42.1558C47.0487 42.3435 46.9018 42.4864 46.729 42.4775Z" fill="#BFA132"/>
<path d="M45.5712 34.6419L31.7641 34.7401C31.6258 34.7401 31.5049 34.6061 31.5049 34.4453V33.391C31.5049 33.2302 31.6172 33.0873 31.7641 33.0873L45.5712 32.7924C45.7527 32.7924 45.8909 32.9354 45.8909 33.123V34.3113C45.8909 34.49 45.7527 34.6419 45.5712 34.6419Z" fill="white"/>
<path d="M45.5712 42.4775L31.7641 41.7359C31.6258 41.727 31.5049 41.593 31.5049 41.4232V36.6879C31.5049 36.5271 31.6172 36.3931 31.7641 36.3931L45.5712 36.4913C45.7527 36.4913 45.8909 36.6432 45.8909 36.8309V42.1558C45.8909 42.3435 45.7527 42.4864 45.5712 42.4775Z" fill="#FDDC61"/>
<path d="M53.6777 32.703C53.6259 32.703 53.5913 32.6673 53.5913 32.6137V12.5557C53.5913 12.502 53.6259 12.4663 53.6777 12.4663C53.7296 12.4663 53.7641 12.502 53.7641 12.5557V32.6137C53.7641 32.6584 53.7209 32.703 53.6777 32.703Z" fill="#FEF5EF"/>
<path d="M32.6108 39.1896C32.559 39.1896 32.5158 39.1449 32.5158 39.0913V37.4116C32.5158 37.358 32.559 37.3134 32.6108 37.3134C32.6627 37.3134 32.7059 37.358 32.7059 37.4116V39.0913C32.7059 39.1449 32.6627 39.1896 32.6108 39.1896Z" fill="#F2F2F2"/>
<path d="M44.0871 12.788C44.0439 12.788 44.0093 12.7523 44.0007 12.7076C43.9921 12.6629 44.0266 12.6183 44.0785 12.6093L46.1953 12.3949C46.2385 12.3949 46.2817 12.4217 46.2904 12.4753C46.299 12.52 46.2644 12.5647 46.2126 12.5736L44.0871 12.788Z" fill="#FB9252"/>
<path d="M26.8433 32.9386H17.3563C16.9848 32.9386 16.691 32.6259 16.691 32.2507V25.8625C16.691 25.4783 16.9934 25.1745 17.3563 25.1745H26.8433C27.2149 25.1745 27.5086 25.4872 27.5086 25.8625V32.2507C27.5086 32.6348 27.2149 32.9386 26.8433 32.9386Z" fill="#2267CF"/>
<path d="M27.9665 32.9386H18.4795C18.108 32.9386 17.8142 32.6259 17.8142 32.2507V25.8625C17.8142 25.4783 18.1166 25.1745 18.4795 25.1745H27.9665C28.338 25.1745 28.6318 25.4872 28.6318 25.8625V32.2507C28.6318 32.6348 28.338 32.9386 27.9665 32.9386Z" fill="#2879F3"/>
<path d="M17.8142 32.3401C17.7624 32.3401 17.7278 32.3044 17.7278 32.2508V25.8626C17.7278 25.4337 18.0648 25.0853 18.4795 25.0853C18.5313 25.0853 18.5659 25.121 18.5659 25.1746C18.5659 25.2282 18.5313 25.264 18.4795 25.264C18.1598 25.264 17.9006 25.532 17.9006 25.8626V32.2508C17.9006 32.3044 17.8574 32.3401 17.8142 32.3401Z" fill="white"/>
<path d="M20.4408 31.5716H19.5163C19.4386 31.5716 19.3695 31.5001 19.3695 31.4197V26.7023C19.3695 26.6219 19.4386 26.5504 19.5163 26.5504H20.4408C20.5186 26.5504 20.5877 26.6219 20.5877 26.7023V31.4197C20.5877 31.5001 20.5186 31.5716 20.4408 31.5716Z" fill="#F2F2F2"/>
<path d="M22.6269 31.5718H21.711C21.6332 31.5718 21.5641 31.5003 21.5641 31.4199V29.8296C21.5641 29.7491 21.6332 29.6777 21.711 29.6777H22.6355C22.7133 29.6777 22.7824 29.7491 22.7824 29.8296V31.4199C22.7824 31.5003 22.7133 31.5718 22.6269 31.5718Z" fill="#194FA0"/>
<path d="M24.8215 31.5716H23.897C23.8192 31.5716 23.7501 31.5001 23.7501 31.4197V28.6411C23.7501 28.5607 23.8192 28.4892 23.897 28.4892H24.8215C24.8992 28.4892 24.9684 28.5607 24.9684 28.6411V31.4197C24.9684 31.5001 24.9079 31.5716 24.8215 31.5716Z" fill="#F2F2F2"/>
<path d="M27.0161 31.5716H26.0916C26.0138 31.5716 25.9447 31.5002 25.9447 31.4198V27.9532C25.9447 27.8727 26.0138 27.8013 26.0916 27.8013H27.0161C27.0939 27.8013 27.163 27.8727 27.163 27.9532V31.4198C27.163 31.5002 27.1025 31.5716 27.0161 31.5716Z" fill="#F2F2F2"/>
</svg>
