<svg width="68" height="68" viewBox="0 0 68 68" fill="none" xmlns="http://www.w3.org/2000/svg">
<rect width="68" height="68" fill="white"/>
<rect x="4" y="5" width="60" height="59.8477" rx="10" fill="#C94886"/>
<rect x="4" y="5" width="60" height="59.8477" rx="10" fill="#C94886"/>
<path d="M58.0061 15.8759H56.2262V57.2428H58.0061C58.8183 57.2428 59.4749 56.5638 59.4749 55.724V17.3948C59.4749 16.5549 58.8183 15.8759 58.0061 15.8759Z" fill="#581435"/>
<path d="M55.8633 57.234L42.9374 55.7419C42.108 55.6436 41.434 54.8127 41.434 53.8835V19.2443C41.434 18.3151 42.0993 17.4753 42.9374 17.3859L55.8633 15.8849C56.8569 15.7688 57.6777 16.5193 57.6777 17.5557V55.5721C57.6777 56.5996 56.8569 57.3501 55.8633 57.234Z" fill="#933562"/>
<g opacity="0.5">
<g opacity="0.5">
<path opacity="0.5" d="M41.434 40.1778L57.6777 22.2819V17.5556C57.6777 17.0642 57.4963 16.6442 57.1939 16.3405L41.434 34.4061V40.1778Z" fill="#581435"/>
</g>
<g opacity="0.5">
<path opacity="0.5" d="M57.6777 28.3752L41.434 45.4312V53.8744C41.434 54.6427 41.8833 55.3396 42.5054 55.6166L57.6777 40.6066V28.3752Z" fill="#581435"/>
</g>
</g>
<g opacity="0.5">
<path opacity="0.5" d="M41.4341 19.0923C41.4341 19.137 41.4254 19.1906 41.4254 19.2352V27.5086C43.2831 27.5086 44.7865 25.6234 44.7865 23.3005C44.7865 20.9864 43.2917 19.1012 41.4341 19.0923Z" fill="#8B315C"/>
</g>
<path d="M51.8369 18.2972L46.5059 18.8422C46.0911 18.8869 45.7542 18.5474 45.7542 18.0917V17.0553L52.6577 16.2601V17.3501C52.6491 17.8237 52.2862 18.2436 51.8369 18.2972Z" fill="#581435"/>
<path d="M27.1444 55.447H15.1691C14.4519 55.447 13.873 54.8484 13.873 54.1068V41.7235C13.873 40.982 14.4519 40.3834 15.1691 40.3834H27.1444C27.8616 40.3834 28.4405 40.982 28.4405 41.7235V54.1068C28.4405 54.8394 27.8616 55.447 27.1444 55.447Z" fill="#2C90D2"/>
<path d="M31.1189 55.447H19.1435C18.4264 55.447 17.8475 54.8484 17.8475 54.1068V41.7235C17.8475 40.982 18.4264 40.3834 19.1435 40.3834H31.1189C31.8361 40.3834 32.415 40.982 32.415 41.7235V54.1068C32.415 54.8394 31.8361 55.447 31.1189 55.447Z" fill="#5CBEFF"/>
<path d="M17.8475 53.2134C17.7957 53.2134 17.7611 53.1777 17.7611 53.1241V41.7236C17.7611 41.67 17.7957 41.6343 17.8475 41.6343C17.8994 41.6343 17.9339 41.67 17.9339 41.7236V53.1241C17.9339 53.1688 17.8994 53.2134 17.8475 53.2134Z" fill="white"/>
<path d="M21.2518 49.9791L24.2932 43.1263H25.4682L28.5096 49.9791H27.0321L26.4014 48.4602H23.3168L22.6861 49.9791H21.2518ZM24.8721 44.7524L23.8093 47.3166H25.9348L24.8721 44.7524Z" fill="#2C90D2"/>
<path d="M21.8911 49.9791L24.9325 43.1263H26.1076L29.149 49.9791H27.6715L27.0407 48.4602H23.9562L23.3254 49.9791H21.8911ZM25.5114 44.7524L24.4487 47.3166H26.5742L25.5114 44.7524Z" fill="#F2F2F2"/>
<path d="M28.4923 53.2939H21.2864C21.1827 53.2939 21.0963 53.2045 21.0963 53.0973V52.2754C21.0963 52.1681 21.1827 52.0788 21.2864 52.0788H28.4923C28.596 52.0788 28.6824 52.1681 28.6824 52.2754V53.0973C28.6824 53.2135 28.6047 53.2939 28.4923 53.2939Z" fill="#2C90D2"/>
<path d="M28.9762 53.2939H21.7702C21.6665 53.2939 21.5801 53.2045 21.5801 53.0973V52.2754C21.5801 52.1681 21.6665 52.0788 21.7702 52.0788H28.9762C29.0799 52.0788 29.1663 52.1681 29.1663 52.2754V53.0973C29.1663 53.2135 29.0799 53.2939 28.9762 53.2939Z" fill="#F2F2F2"/>
<path d="M44.6118 59.0476C46.7257 59.0476 48.4394 57.2755 48.4394 55.0896C48.4394 52.9036 46.7257 51.1316 44.6118 51.1316C42.4978 51.1316 40.7841 52.9036 40.7841 55.0896C40.7841 57.2755 42.4978 59.0476 44.6118 59.0476Z" fill="#2879F3"/>
<path d="M47.6704 52.6953C47.6963 52.9007 47.7136 53.1062 47.7136 53.3117C47.7136 55.6705 45.8646 57.5824 43.5836 57.5824C42.6763 57.5824 41.8382 57.2787 41.1557 56.7605C41.7691 58.1006 43.0911 59.0388 44.6204 59.0388C46.7373 59.0388 48.448 57.2697 48.448 55.0808C48.4394 54.1873 48.1543 53.3653 47.6704 52.6953Z" fill="#194FA0"/>
<path d="M37.7168 19.0923H36.7491V19.271C35.3666 19.7892 34.3557 21.3974 34.3557 23.3094C34.3557 25.2214 35.3666 26.8207 36.7491 27.3478V27.5265H37.7168C39.5744 27.5265 41.0778 25.6413 41.0778 23.3183C41.0778 20.9953 39.5744 19.0923 37.7168 19.0923Z" fill="#F2F2F2"/>
<path d="M36.7577 27.5177C38.614 27.5177 40.1188 25.6337 40.1188 23.3095C40.1188 20.9854 38.614 19.1014 36.7577 19.1014C34.9015 19.1014 33.3967 20.9854 33.3967 23.3095C33.3967 25.6337 34.9015 27.5177 36.7577 27.5177Z" fill="white"/>
<path d="M40.1101 23.3988C40.0583 23.3988 40.0237 23.3631 40.0237 23.3095C40.0237 21.0401 38.5549 19.1907 36.7491 19.1907C36.6973 19.1907 36.6627 19.1549 36.6627 19.1013C36.6627 19.0477 36.6973 19.012 36.7491 19.012C38.6499 19.012 40.1965 20.9418 40.1965 23.3095C40.1965 23.3542 40.162 23.3988 40.1101 23.3988Z" fill="#913460"/>
<path d="M38.4598 21.9782C38.3907 21.8978 38.3043 21.8531 38.2179 21.8531H37.8809L36.3603 23.9528L35.5653 22.9789C35.4962 22.8896 35.3925 22.8538 35.2975 22.8628H34.9519L35.0469 23.0325C34.9432 23.1933 34.9605 23.4256 35.0815 23.5775L36.127 24.8552C36.1961 24.9356 36.2825 24.9802 36.3689 24.9802C36.4553 24.9802 36.5417 24.9356 36.6108 24.8552L38.4685 22.5768C38.5894 22.4071 38.5894 22.1391 38.4598 21.9782Z" fill="white"/>
<path d="M36.0147 24.9622C35.9283 24.9622 35.8419 24.9175 35.7728 24.8371L34.7273 23.5595C34.5977 23.3987 34.5977 23.1306 34.7273 22.9698C34.8569 22.809 35.0729 22.809 35.2112 22.9698L36.0147 23.9526L37.6304 21.9691C37.76 21.8083 37.976 21.8083 38.1143 21.9691C38.2439 22.1299 38.2439 22.398 38.1143 22.5588L36.2566 24.8371C36.1875 24.9265 36.1011 24.9622 36.0147 24.9622Z" fill="#5CBEFF"/>
<path d="M50.729 39.6419L36.9219 39.7401C36.7837 39.7401 36.6627 39.6061 36.6627 39.4453V38.391C36.6627 38.2302 36.775 38.0873 36.9219 38.0873L50.729 37.7924C50.9105 37.7924 51.0487 37.9354 51.0487 38.123V39.3113C51.0487 39.49 50.9018 39.6419 50.729 39.6419Z" fill="#F2F2F2"/>
<path d="M50.729 47.4775L36.9219 46.7359C36.7837 46.727 36.6627 46.593 36.6627 46.4232V41.6879C36.6627 41.5271 36.775 41.3931 36.9219 41.3931L50.729 41.4913C50.9105 41.4913 51.0487 41.6432 51.0487 41.8309V47.1558C51.0487 47.3435 50.9018 47.4864 50.729 47.4775Z" fill="#BFA132"/>
<path d="M49.5712 39.6419L35.7641 39.7401C35.6258 39.7401 35.5049 39.6061 35.5049 39.4453V38.391C35.5049 38.2302 35.6172 38.0873 35.7641 38.0873L49.5712 37.7924C49.7527 37.7924 49.8909 37.9354 49.8909 38.123V39.3113C49.8909 39.49 49.7527 39.6419 49.5712 39.6419Z" fill="white"/>
<path d="M49.5712 47.4775L35.7641 46.7359C35.6258 46.727 35.5049 46.593 35.5049 46.4232V41.6879C35.5049 41.5271 35.6172 41.3931 35.7641 41.3931L49.5712 41.4913C49.7527 41.4913 49.8909 41.6432 49.8909 41.8309V47.1558C49.8909 47.3435 49.7527 47.4864 49.5712 47.4775Z" fill="#FDDC61"/>
<path d="M57.6777 37.703C57.6259 37.703 57.5913 37.6673 57.5913 37.6137V17.5557C57.5913 17.502 57.6259 17.4663 57.6777 17.4663C57.7296 17.4663 57.7641 17.502 57.7641 17.5557V37.6137C57.7641 37.6584 57.7209 37.703 57.6777 37.703Z" fill="#FEF5EF"/>
<path d="M36.6108 44.1896C36.559 44.1896 36.5158 44.1449 36.5158 44.0913V42.4116C36.5158 42.358 36.559 42.3134 36.6108 42.3134C36.6627 42.3134 36.7059 42.358 36.7059 42.4116V44.0913C36.7059 44.1449 36.6627 44.1896 36.6108 44.1896Z" fill="#F2F2F2"/>
<path d="M48.0871 17.788C48.0439 17.788 48.0093 17.7523 48.0007 17.7076C47.9921 17.6629 48.0266 17.6183 48.0785 17.6093L50.1953 17.3949C50.2385 17.3949 50.2817 17.4217 50.2904 17.4753C50.299 17.52 50.2644 17.5647 50.2126 17.5736L48.0871 17.788Z" fill="#FB9252"/>
<path d="M30.8433 37.9386H21.3563C20.9848 37.9386 20.691 37.6259 20.691 37.2507V30.8625C20.691 30.4783 20.9934 30.1745 21.3563 30.1745H30.8433C31.2149 30.1745 31.5086 30.4872 31.5086 30.8625V37.2507C31.5086 37.6348 31.2149 37.9386 30.8433 37.9386Z" fill="#2267CF"/>
<path d="M31.9665 37.9386H22.4795C22.108 37.9386 21.8142 37.6259 21.8142 37.2507V30.8625C21.8142 30.4783 22.1166 30.1745 22.4795 30.1745H31.9665C32.338 30.1745 32.6318 30.4872 32.6318 30.8625V37.2507C32.6318 37.6348 32.338 37.9386 31.9665 37.9386Z" fill="#2879F3"/>
<path d="M21.8142 37.3401C21.7624 37.3401 21.7278 37.3044 21.7278 37.2508V30.8626C21.7278 30.4337 22.0648 30.0853 22.4795 30.0853C22.5313 30.0853 22.5659 30.121 22.5659 30.1746C22.5659 30.2282 22.5313 30.264 22.4795 30.264C22.1598 30.264 21.9006 30.532 21.9006 30.8626V37.2508C21.9006 37.3044 21.8574 37.3401 21.8142 37.3401Z" fill="white"/>
<path d="M24.4408 36.5716H23.5163C23.4386 36.5716 23.3694 36.5001 23.3694 36.4197V31.7023C23.3694 31.6219 23.4386 31.5504 23.5163 31.5504H24.4408C24.5186 31.5504 24.5877 31.6219 24.5877 31.7023V36.4197C24.5877 36.5001 24.5186 36.5716 24.4408 36.5716Z" fill="#F2F2F2"/>
<path d="M26.6269 36.5718H25.711C25.6332 36.5718 25.5641 36.5003 25.5641 36.4199V34.8296C25.5641 34.7491 25.6332 34.6777 25.711 34.6777H26.6355C26.7133 34.6777 26.7824 34.7491 26.7824 34.8296V36.4199C26.7824 36.5003 26.7133 36.5718 26.6269 36.5718Z" fill="#194FA0"/>
<path d="M28.8215 36.5716H27.897C27.8192 36.5716 27.7501 36.5001 27.7501 36.4197V33.6411C27.7501 33.5607 27.8192 33.4892 27.897 33.4892H28.8215C28.8992 33.4892 28.9684 33.5607 28.9684 33.6411V36.4197C28.9684 36.5001 28.9079 36.5716 28.8215 36.5716Z" fill="#F2F2F2"/>
<path d="M31.0161 36.5716H30.0916C30.0138 36.5716 29.9447 36.5002 29.9447 36.4198V32.9532C29.9447 32.8727 30.0138 32.8013 30.0916 32.8013H31.0161C31.0939 32.8013 31.163 32.8727 31.163 32.9532V36.4198C31.163 36.5002 31.1025 36.5716 31.0161 36.5716Z" fill="#F2F2F2"/>
</svg>
