<svg width="60" height="60" viewBox="0 0 60 60" fill="none" xmlns="http://www.w3.org/2000/svg">
<rect width="60" height="59.8477" rx="10" fill="#FFBD95"/>
<path d="M36.2971 45.0519H46.5097C47.1213 45.0519 47.615 44.5631 47.615 43.9575V38.2963C47.615 37.6908 47.1213 37.202 46.5097 37.202H36.2971C35.6855 37.202 35.1918 37.6908 35.1918 38.2963V43.9575C35.1918 44.5631 35.6855 45.0519 36.2971 45.0519Z" fill="#194FA0"/>
<path d="M32.9076 45.0519H43.1203C43.7318 45.0519 44.2255 44.5631 44.2255 43.9575V38.2963C44.2255 37.6908 43.7318 37.202 43.1203 37.202H32.9076C32.296 37.202 31.8023 37.6908 31.8023 38.2963V43.9575C31.8023 44.5631 32.296 45.0519 32.9076 45.0519Z" fill="#2879F3"/>
<path d="M44.2256 43.2277C44.1813 43.2277 44.1519 43.1986 44.1519 43.1548V38.296C44.1519 38.2523 44.1813 38.2231 44.2256 38.2231C44.2698 38.2231 44.2992 38.2523 44.2992 38.296V43.1548C44.2992 43.1986 44.2698 43.2277 44.2256 43.2277Z" fill="white"/>
<path d="M44.5276 33.559H19.3128C18.7013 33.559 18.2076 33.0703 18.2076 32.4647V15.0943C18.2076 14.4888 18.7013 14 19.3128 14H44.5203C45.1319 14 45.6255 14.4888 45.6255 15.0943V32.4647C45.6329 33.0703 45.1392 33.559 44.5276 33.559Z" fill="#E68C54"/>
<path d="M43.3487 33.559H18.1339C17.5224 33.559 17.0287 33.0703 17.0287 32.4647V15.0943C17.0287 14.4888 17.5224 14 18.1339 14H43.3414C43.953 14 44.4466 14.4888 44.4466 15.0943V32.4647C44.454 33.0703 43.9603 33.559 43.3487 33.559Z" fill="#FC9353"/>
<path d="M35.5383 30.8378H26.3572C26.2467 30.8378 26.1509 30.7503 26.1509 30.6336V29.853C26.1509 29.7435 26.2393 29.6487 26.3572 29.6487H35.5383C35.6488 29.6487 35.7446 29.7362 35.7446 29.853V30.6336C35.7446 30.743 35.6562 30.8378 35.5383 30.8378Z" fill="#CFB34B"/>
<path d="M32.2871 27.2219C34.4079 26.4891 35.5271 24.1928 34.7869 22.093C34.0467 19.9932 31.7275 18.8851 29.6067 19.618C27.4859 20.3508 26.3667 22.6471 27.1069 24.7468C27.847 26.8466 30.1663 27.9547 32.2871 27.2219Z" fill="#D6763C"/>
<path d="M34.9045 30.8378H25.7234C25.6129 30.8378 25.5171 30.7503 25.5171 30.6336V29.853C25.5171 29.7435 25.6055 29.6487 25.7234 29.6487H34.9045C35.015 29.6487 35.1108 29.7362 35.1108 29.853V30.6336C35.1108 30.743 35.015 30.8378 34.9045 30.8378Z" fill="#FDDC61"/>
<path d="M43.3487 14H18.1339C17.5224 14 17.0287 14.4888 17.0287 15.0943V16.8744H44.4466V15.0943C44.454 14.4888 43.9603 14 43.3487 14Z" fill="#D6763C"/>
<path d="M19.5265 16.0209C19.8114 16.0209 20.0423 15.7923 20.0423 15.5103C20.0423 15.2282 19.8114 14.9996 19.5265 14.9996C19.2417 14.9996 19.0107 15.2282 19.0107 15.5103C19.0107 15.7923 19.2417 16.0209 19.5265 16.0209Z" fill="#CCCCCC"/>
<path d="M22.135 16.0209C22.4199 16.0209 22.6508 15.7923 22.6508 15.5103C22.6508 15.2282 22.4199 14.9996 22.135 14.9996C21.8502 14.9996 21.6192 15.2282 21.6192 15.5103C21.6192 15.7923 21.8502 16.0209 22.135 16.0209Z" fill="#CCCCCC"/>
<path d="M31.6532 27.2203C33.7739 26.4875 34.8931 24.1912 34.153 22.0914C33.4128 19.9917 31.0935 18.8835 28.9728 19.6164C26.852 20.3492 25.7328 22.6455 26.4729 24.7453C27.2131 26.845 29.5324 27.9531 31.6532 27.2203Z" fill="white"/>
<path d="M30.314 27.4454C31.4634 27.4454 32.5024 26.9712 33.2392 26.2125C32.6498 25.2203 31.5592 24.5564 30.314 24.5564C29.0687 24.5564 27.9782 25.2203 27.3887 26.2125C28.1255 26.9712 29.1645 27.4454 30.314 27.4454Z" fill="#8B315C"/>
<path d="M31.4542 23.2228C31.688 22.5996 31.3674 21.9067 30.7379 21.6752C30.1085 21.4436 29.4087 21.7611 29.1748 22.3843C28.9409 23.0075 29.2616 23.7004 29.891 23.932C30.5205 24.1635 31.2203 23.846 31.4542 23.2228Z" fill="#8B315C"/>
<path d="M14.9232 25.0453H13.8548C13.42 25.0453 13.0664 25.4393 13.0664 25.9208V41.7081C13.0664 42.1896 13.42 42.5836 13.8548 42.5836H14.9232" fill="#CDD5EA"/>
<path d="M13.0663 38.8555C13.0295 38.8555 13 38.8263 13 38.7898V25.9207C13 25.4027 13.3832 24.9796 13.8547 24.9796C13.8916 24.9796 13.9211 25.0087 13.9211 25.0452C13.9211 25.0817 13.8916 25.1109 13.8547 25.1109C13.4568 25.1109 13.1326 25.4756 13.1326 25.9207V38.7898C13.14 38.8263 13.1105 38.8555 13.0663 38.8555Z" fill="#FC9353"/>
<path d="M24.0086 41.8393L14.8644 42.5761C14.4075 42.6126 14.0391 42.2551 14.0391 41.7809V25.8404C14.0391 25.3662 14.4149 25.0087 14.8644 25.0452L24.0159 25.7894C24.3917 25.8185 24.7012 26.1906 24.7012 26.6283V41.0076C24.6938 41.4308 24.3917 41.8101 24.0086 41.8393Z" fill="white"/>
<path d="M26.837 45.9668C27.8187 45.9668 28.6146 45.1439 28.6146 44.1287C28.6146 43.1135 27.8187 42.2906 26.837 42.2906C25.8553 42.2906 25.0594 43.1135 25.0594 44.1287C25.0594 45.1439 25.8553 45.9668 26.837 45.9668Z" fill="#FC9353"/>
<path d="M28.2561 43.0247C28.2708 43.1154 28.2781 43.2138 28.2781 43.3121C28.2781 44.4089 27.4222 45.2939 26.3615 45.2939C25.9372 45.2939 25.5495 45.1502 25.235 44.9157C25.5203 45.536 26.1347 45.9747 26.8443 45.9747C27.8245 45.9747 28.6219 45.1502 28.6219 44.1366C28.6146 43.713 28.4829 43.3348 28.2561 43.0247Z" fill="#E68C54"/>
<path d="M19.7133 28.8316L16.0585 28.6565C15.9775 28.6492 15.9111 28.5836 15.9111 28.496V27.7884C15.9111 27.7008 15.9775 27.6352 16.0585 27.6425L19.7133 27.854C19.7869 27.8613 19.8459 27.927 19.8459 28.0072V28.6857C19.8459 28.766 19.7869 28.8316 19.7133 28.8316Z" fill="#8B315C"/>
<path d="M22.9916 28.9845L20.8473 28.8824C20.7737 28.8824 20.7147 28.8094 20.7147 28.7292V28.0507C20.7147 27.9705 20.7737 27.9048 20.8473 27.9121L22.9916 28.0361C23.0652 28.0434 23.1168 28.1091 23.1168 28.1893V28.8459C23.1168 28.9262 23.0579 28.9918 22.9916 28.9845Z" fill="#FFBD95"/>
<path d="M22.9915 30.8887L17.4505 30.7282C17.3694 30.7282 17.3105 30.6552 17.3105 30.575V29.8746C17.3105 29.7871 17.3768 29.7214 17.4505 29.7287L22.9915 29.9403C23.0652 29.9403 23.1168 30.0132 23.1168 30.0862V30.7428C23.1168 30.8303 23.0579 30.8887 22.9915 30.8887Z" fill="#FFBD95"/>
<path d="M19.5136 32.7564L17.4505 32.7345C17.3694 32.7345 17.3105 32.6615 17.3105 32.5813V31.8809C17.3105 31.7934 17.3768 31.7277 17.4505 31.7277L19.5136 31.7715C19.5873 31.7715 19.6536 31.8444 19.6536 31.9247V32.6105C19.6463 32.6907 19.5873 32.7564 19.5136 32.7564Z" fill="#FFBD95"/>
<path d="M22.9916 32.7928L20.5011 32.7709C20.4274 32.7709 20.3684 32.7053 20.3684 32.625V31.9466C20.3684 31.8663 20.4274 31.8007 20.5011 31.8007L22.9916 31.8517C23.0653 31.8517 23.1169 31.9174 23.1169 31.9976V32.6542C23.1169 32.7272 23.0579 32.7928 22.9916 32.7928Z" fill="#8B315C"/>
<path d="M21.1274 34.7115L17.4431 34.7407C17.3621 34.7407 17.3031 34.675 17.3031 34.5875V33.8871C17.3031 33.7995 17.3694 33.7339 17.4431 33.7339H21.1274C21.201 33.7339 21.26 33.7995 21.26 33.8798V34.551C21.26 34.6458 21.201 34.7115 21.1274 34.7115Z" fill="#FFBD95"/>
<path d="M18.261 36.725L16.0579 36.7834C15.9768 36.7834 15.9105 36.7177 15.9105 36.6302V35.9225C15.9105 35.835 15.9768 35.7693 16.0579 35.762L18.261 35.7183C18.3421 35.7183 18.401 35.7839 18.401 35.8642V36.5572C18.401 36.6521 18.3347 36.725 18.261 36.725Z" fill="#8B315C"/>
<path d="M22.9916 36.5937L19.4326 36.6959C19.3589 36.6959 19.2926 36.6302 19.2926 36.55V35.8642C19.2926 35.7839 19.3516 35.711 19.4326 35.711L22.9916 35.6453C23.0653 35.6453 23.1168 35.711 23.1168 35.7839V36.4405C23.1168 36.5281 23.0579 36.5937 22.9916 36.5937Z" fill="#FFBD95"/>
<path d="M19.7126 38.651L16.0579 38.8188C15.9768 38.8261 15.9105 38.7532 15.9105 38.6729V37.9653C15.9105 37.8777 15.9768 37.8048 16.0579 37.8048L19.7126 37.6661C19.7863 37.6661 19.8452 37.7245 19.8452 37.812V38.4905C19.8452 38.5781 19.7863 38.651 19.7126 38.651Z" fill="#FFBD95"/>
<path d="M44.4541 27.9051C44.4099 27.9051 44.3804 27.8759 44.3804 27.8321V15.0943C44.3804 15.0505 44.4099 15.0214 44.4541 15.0214C44.4983 15.0214 44.5278 15.0505 44.5278 15.0943V27.8321C44.5278 27.8686 44.4909 27.9051 44.4541 27.9051Z" fill="white"/>
<path d="M35.2803 16.9475H17.0286C16.9844 16.9475 16.9549 16.9183 16.9549 16.8745C16.9549 16.8308 16.9844 16.8016 17.0286 16.8016H35.2803C35.3245 16.8016 35.3539 16.8308 35.3539 16.8745C35.3539 16.9183 35.3245 16.9475 35.2803 16.9475Z" fill="white"/>
<path d="M46.134 27.1829L42.7666 26.4022C42.6045 26.3658 42.4645 26.5044 42.5014 26.6649L43.2898 29.9989C43.3266 30.1667 43.5403 30.2251 43.6582 30.101L44.2845 29.4809L45.9424 31.1224C46.0309 31.2099 46.1709 31.2099 46.2519 31.1224L47.2614 30.1229C47.3498 30.0354 47.3498 29.8968 47.2614 29.8165L45.6035 28.175L46.2298 27.5549C46.3624 27.4236 46.3035 27.2193 46.134 27.1829Z" fill="#FDDC61"/>
<path d="M37.2182 41.9439C37.2477 41.9804 37.255 42.0242 37.255 42.0679C37.255 42.1482 37.2329 42.2138 37.1814 42.2649C37.1298 42.316 37.0635 42.3379 36.9898 42.3379C36.9456 42.3379 36.9014 42.3306 36.8571 42.3087L35.4056 41.7542C35.3245 41.725 35.2582 41.674 35.2066 41.601C35.1624 41.5354 35.1329 41.4551 35.1329 41.3603C35.1329 41.2727 35.155 41.1925 35.2066 41.1268C35.2508 41.0539 35.3171 41.0028 35.4056 40.9663L36.8571 40.4119C36.9087 40.3973 36.9529 40.3827 36.9898 40.3827C37.0708 40.3827 37.1298 40.4046 37.1814 40.4556C37.2329 40.5067 37.255 40.5724 37.255 40.6526C37.255 40.7037 37.2403 40.7475 37.2182 40.7839C37.1887 40.8204 37.1593 40.8496 37.1077 40.8642L35.8182 41.353L37.115 41.8637C37.1593 41.8855 37.1961 41.9074 37.2182 41.9439Z" fill="#194FA0"/>
<path d="M38.0287 42.9069C37.9771 42.9433 37.9182 42.9579 37.8592 42.9579C37.7782 42.9579 37.7045 42.9287 37.6456 42.8777C37.5866 42.8266 37.5571 42.761 37.5571 42.6807C37.5571 42.6442 37.5645 42.615 37.5719 42.5786L38.5592 39.5072C38.5813 39.4415 38.6182 39.3832 38.6698 39.354C38.7213 39.3175 38.7729 39.3029 38.8392 39.3029C38.9203 39.3029 38.994 39.3321 39.0529 39.3832C39.1119 39.4342 39.1487 39.4999 39.1487 39.5874C39.1487 39.602 39.1413 39.6385 39.134 39.6823L38.1466 42.7537C38.1171 42.8193 38.0803 42.8704 38.0287 42.9069Z" fill="#194FA0"/>
<path d="M41.4919 41.1341C41.5361 41.207 41.5656 41.28 41.5656 41.3675C41.5656 41.4624 41.5434 41.5426 41.4919 41.6083C41.4477 41.6739 41.3813 41.725 41.2929 41.7615L39.8413 42.3159C39.7971 42.3305 39.7529 42.3451 39.7087 42.3451C39.6277 42.3451 39.5687 42.3232 39.5171 42.2722C39.4655 42.2211 39.4434 42.1554 39.4434 42.0752C39.4434 42.0241 39.4582 41.9876 39.4803 41.9512C39.5098 41.9147 39.5392 41.8855 39.5908 41.8636L40.8803 41.3748L39.5908 40.886C39.5466 40.8714 39.5098 40.8423 39.4803 40.8058C39.4508 40.7693 39.4434 40.7255 39.4434 40.6745C39.4434 40.5942 39.4655 40.5286 39.5171 40.4775C39.5687 40.4264 39.635 40.4045 39.7087 40.4045C39.7529 40.4045 39.7971 40.4118 39.8413 40.4337L41.2929 40.9882C41.374 41.0174 41.4403 41.0684 41.4919 41.1341Z" fill="#194FA0"/>
<path d="M36.8497 41.9439C36.8792 41.9804 36.8866 42.0242 36.8866 42.0679C36.8866 42.1482 36.8645 42.2138 36.8129 42.2649C36.7613 42.316 36.695 42.3379 36.6213 42.3379C36.5771 42.3379 36.5329 42.3306 36.4887 42.3087L35.0371 41.7542C34.956 41.725 34.8897 41.674 34.8381 41.601C34.7939 41.5354 34.7645 41.4551 34.7645 41.3603C34.7645 41.2727 34.7866 41.1925 34.8381 41.1268C34.8824 41.0539 34.9487 41.0028 35.0371 40.9663L36.4887 40.4119C36.5403 40.3973 36.5845 40.3827 36.6213 40.3827C36.7024 40.3827 36.7613 40.4046 36.8129 40.4556C36.8645 40.5067 36.8866 40.5724 36.8866 40.6526C36.8866 40.7037 36.8718 40.7475 36.8497 40.7839C36.8203 40.8204 36.7908 40.8496 36.7392 40.8642L35.4497 41.353L36.7466 41.8637C36.7908 41.8855 36.8276 41.9074 36.8497 41.9439Z" fill="#FDDC61"/>
<path d="M37.6602 42.9069C37.6086 42.9433 37.5497 42.9579 37.4907 42.9579C37.4097 42.9579 37.336 42.9287 37.2771 42.8777C37.2181 42.8266 37.1886 42.761 37.1886 42.6807C37.1886 42.6442 37.196 42.615 37.2034 42.5786L38.1907 39.5072C38.2128 39.4415 38.2497 39.3832 38.3013 39.354C38.3528 39.3175 38.4044 39.3029 38.4707 39.3029C38.5518 39.3029 38.6255 39.3321 38.6844 39.3832C38.7434 39.4342 38.7802 39.4999 38.7802 39.5874C38.7802 39.602 38.7728 39.6385 38.7655 39.6823L37.7781 42.7537C37.7486 42.8193 37.7118 42.8704 37.6602 42.9069Z" fill="#FDDC61"/>
<path d="M41.1234 41.1341C41.1676 41.207 41.1971 41.28 41.1971 41.3675C41.1971 41.4624 41.175 41.5426 41.1234 41.6083C41.0792 41.6739 41.0129 41.725 40.9245 41.7615L39.4729 42.3159C39.4287 42.3305 39.3844 42.3451 39.3402 42.3451C39.2592 42.3451 39.2002 42.3232 39.1487 42.2722C39.0971 42.2211 39.075 42.1554 39.075 42.0752C39.075 42.0241 39.0897 41.9876 39.1118 41.9512C39.1413 41.9147 39.1708 41.8855 39.2223 41.8636L40.5118 41.3748L39.2223 40.886C39.1781 40.8714 39.1413 40.8423 39.1118 40.8058C39.0823 40.7693 39.075 40.7255 39.075 40.6745C39.075 40.5942 39.0971 40.5286 39.1487 40.4775C39.2002 40.4264 39.2666 40.4045 39.3402 40.4045C39.3844 40.4045 39.4287 40.4118 39.4729 40.4337L40.9245 40.9882C41.0055 41.0174 41.0718 41.0684 41.1234 41.1341Z" fill="#FDDC61"/>
<path d="M38.6771 16.0647H25.8855C25.5687 16.0647 25.3181 15.8093 25.3181 15.5029C25.3181 15.1892 25.576 14.9412 25.8855 14.9412H38.6698C38.9866 14.9412 39.2371 15.1965 39.2371 15.5029C39.2445 15.8166 38.994 16.0647 38.6771 16.0647ZM25.8855 15.0579C25.635 15.0579 25.436 15.2549 25.436 15.5029C25.436 15.751 25.635 15.9479 25.8855 15.9479H38.6698C38.9203 15.9479 39.1192 15.751 39.1192 15.5029C39.1192 15.2549 38.9203 15.0579 38.6698 15.0579H25.8855V15.0579Z" fill="white"/>
</svg>
