<svg width="68" height="68" viewBox="0 0 68 68" fill="none" xmlns="http://www.w3.org/2000/svg">
<rect width="68" height="68" fill="white"/>
<rect x="4" y="4" width="60" height="59.8477" rx="10" fill="#FFBD95"/>
<path d="M40.2971 49.0519H50.5097C51.1213 49.0519 51.615 48.5631 51.615 47.9575V42.2963C51.615 41.6908 51.1213 41.202 50.5097 41.202H40.2971C39.6855 41.202 39.1918 41.6908 39.1918 42.2963V47.9575C39.1918 48.5631 39.6855 49.0519 40.2971 49.0519Z" fill="#194FA0"/>
<path d="M36.9076 49.0519H47.1203C47.7318 49.0519 48.2255 48.5631 48.2255 47.9575V42.2963C48.2255 41.6908 47.7318 41.202 47.1203 41.202H36.9076C36.296 41.202 35.8023 41.6908 35.8023 42.2963V47.9575C35.8023 48.5631 36.296 49.0519 36.9076 49.0519Z" fill="#2879F3"/>
<path d="M48.2255 47.2277C48.1813 47.2277 48.1519 47.1986 48.1519 47.1548V42.296C48.1519 42.2523 48.1813 42.2231 48.2255 42.2231C48.2697 42.2231 48.2992 42.2523 48.2992 42.296V47.1548C48.2992 47.1986 48.2697 47.2277 48.2255 47.2277Z" fill="white"/>
<path d="M48.5276 37.559H23.3128C22.7013 37.559 22.2076 37.0703 22.2076 36.4647V19.0943C22.2076 18.4888 22.7013 18 23.3128 18H48.5203C49.1319 18 49.6255 18.4888 49.6255 19.0943V36.4647C49.6329 37.0703 49.1392 37.559 48.5276 37.559Z" fill="#E68C54"/>
<path d="M47.3488 37.559H22.134C21.5224 37.559 21.0287 37.0703 21.0287 36.4647V19.0943C21.0287 18.4888 21.5224 18 22.134 18H47.3414C47.953 18 48.4466 18.4888 48.4466 19.0943V36.4647C48.454 37.0703 47.9603 37.559 47.3488 37.559Z" fill="#FC9353"/>
<path d="M39.5383 34.8378H30.3572C30.2467 34.8378 30.1509 34.7503 30.1509 34.6336V33.853C30.1509 33.7435 30.2393 33.6487 30.3572 33.6487H39.5383C39.6488 33.6487 39.7446 33.7362 39.7446 33.853V34.6336C39.7446 34.743 39.6562 34.8378 39.5383 34.8378Z" fill="#CFB34B"/>
<path d="M36.2871 31.2219C38.4079 30.4891 39.5271 28.1928 38.7869 26.093C38.0467 23.9932 35.7275 22.8851 33.6067 23.618C31.4859 24.3508 30.3667 26.6471 31.1069 28.7468C31.847 30.8466 34.1663 31.9547 36.2871 31.2219Z" fill="#D6763C"/>
<path d="M38.9045 34.8378H29.7234C29.6129 34.8378 29.5171 34.7503 29.5171 34.6336V33.853C29.5171 33.7435 29.6055 33.6487 29.7234 33.6487H38.9045C39.015 33.6487 39.1108 33.7362 39.1108 33.853V34.6336C39.1108 34.743 39.015 34.8378 38.9045 34.8378Z" fill="#FDDC61"/>
<path d="M47.3488 18H22.134C21.5224 18 21.0287 18.4888 21.0287 19.0943V20.8744H48.4466V19.0943C48.454 18.4888 47.9603 18 47.3488 18Z" fill="#D6763C"/>
<path d="M23.5265 20.0209C23.8114 20.0209 24.0423 19.7923 24.0423 19.5103C24.0423 19.2282 23.8114 18.9996 23.5265 18.9996C23.2417 18.9996 23.0107 19.2282 23.0107 19.5103C23.0107 19.7923 23.2417 20.0209 23.5265 20.0209Z" fill="#CCCCCC"/>
<path d="M26.135 20.0209C26.4199 20.0209 26.6508 19.7923 26.6508 19.5103C26.6508 19.2282 26.4199 18.9996 26.135 18.9996C25.8502 18.9996 25.6192 19.2282 25.6192 19.5103C25.6192 19.7923 25.8502 20.0209 26.135 20.0209Z" fill="#CCCCCC"/>
<path d="M35.6532 31.2203C37.7739 30.4875 38.8931 28.1912 38.153 26.0914C37.4128 23.9917 35.0935 22.8835 32.9728 23.6164C30.852 24.3492 29.7328 26.6455 30.473 28.7453C31.2131 30.845 33.5324 31.9531 35.6532 31.2203Z" fill="white"/>
<path d="M34.314 31.4454C35.4634 31.4454 36.5024 30.9712 37.2392 30.2125C36.6498 29.2203 35.5592 28.5564 34.314 28.5564C33.0687 28.5564 31.9782 29.2203 31.3887 30.2125C32.1255 30.9712 33.1645 31.4454 34.314 31.4454Z" fill="#8B315C"/>
<path d="M35.4542 27.2228C35.6881 26.5996 35.3674 25.9067 34.738 25.6752C34.1085 25.4436 33.4087 25.7611 33.1748 26.3843C32.941 27.0075 33.2616 27.7004 33.8911 27.932C34.5205 28.1635 35.2203 27.846 35.4542 27.2228Z" fill="#8B315C"/>
<path d="M18.9232 29.0453H17.8548C17.4201 29.0453 17.0664 29.4393 17.0664 29.9208V45.7081C17.0664 46.1896 17.4201 46.5836 17.8548 46.5836H18.9232" fill="#CDD5EA"/>
<path d="M17.0663 42.8555C17.0295 42.8555 17 42.8263 17 42.7898V29.9207C17 29.4027 17.3832 28.9796 17.8547 28.9796C17.8916 28.9796 17.9211 29.0087 17.9211 29.0452C17.9211 29.0817 17.8916 29.1109 17.8547 29.1109C17.4568 29.1109 17.1326 29.4756 17.1326 29.9207V42.7898C17.14 42.8263 17.1105 42.8555 17.0663 42.8555Z" fill="#FC9353"/>
<path d="M28.0086 45.8393L18.8644 46.5761C18.4075 46.6126 18.0391 46.2551 18.0391 45.7809V29.8404C18.0391 29.3662 18.4149 29.0087 18.8644 29.0452L28.016 29.7894C28.3917 29.8185 28.7012 30.1906 28.7012 30.6283V45.0076C28.6939 45.4308 28.3917 45.8101 28.0086 45.8393Z" fill="white"/>
<path d="M30.837 49.9668C31.8187 49.9668 32.6146 49.1439 32.6146 48.1287C32.6146 47.1135 31.8187 46.2906 30.837 46.2906C29.8553 46.2906 29.0594 47.1135 29.0594 48.1287C29.0594 49.1439 29.8553 49.9668 30.837 49.9668Z" fill="#FC9353"/>
<path d="M32.2561 47.0247C32.2708 47.1154 32.2781 47.2138 32.2781 47.3121C32.2781 48.4089 31.4222 49.2939 30.3615 49.2939C29.9372 49.2939 29.5495 49.1502 29.235 48.9157C29.5203 49.536 30.1347 49.9747 30.8443 49.9747C31.8245 49.9747 32.6219 49.1502 32.6219 48.1366C32.6146 47.713 32.4829 47.3348 32.2561 47.0247Z" fill="#E68C54"/>
<path d="M23.7132 32.8316L20.0585 32.6565C19.9774 32.6492 19.9111 32.5836 19.9111 32.496V31.7884C19.9111 31.7008 19.9774 31.6352 20.0585 31.6425L23.7132 31.854C23.7869 31.8613 23.8459 31.927 23.8459 32.0072V32.6857C23.8459 32.766 23.7869 32.8316 23.7132 32.8316Z" fill="#8B315C"/>
<path d="M26.9915 32.9845L24.8473 32.8824C24.7736 32.8824 24.7147 32.8094 24.7147 32.7292V32.0507C24.7147 31.9705 24.7736 31.9048 24.8473 31.9121L26.9915 32.0361C27.0652 32.0434 27.1168 32.1091 27.1168 32.1893V32.8459C27.1168 32.9262 27.0579 32.9918 26.9915 32.9845Z" fill="#FFBD95"/>
<path d="M26.9915 34.8887L21.4505 34.7282C21.3694 34.7282 21.3105 34.6552 21.3105 34.575V33.8746C21.3105 33.7871 21.3768 33.7214 21.4505 33.7287L26.9915 33.9403C27.0652 33.9403 27.1168 34.0132 27.1168 34.0862V34.7428C27.1168 34.8303 27.0578 34.8887 26.9915 34.8887Z" fill="#FFBD95"/>
<path d="M23.5136 36.7564L21.4505 36.7345C21.3694 36.7345 21.3105 36.6615 21.3105 36.5813V35.8809C21.3105 35.7934 21.3768 35.7277 21.4505 35.7277L23.5136 35.7715C23.5873 35.7715 23.6536 35.8444 23.6536 35.9247V36.6105C23.6463 36.6907 23.5873 36.7564 23.5136 36.7564Z" fill="#FFBD95"/>
<path d="M26.9916 36.7928L24.501 36.7709C24.4274 36.7709 24.3684 36.7053 24.3684 36.625V35.9466C24.3684 35.8663 24.4274 35.8007 24.501 35.8007L26.9916 35.8517C27.0653 35.8517 27.1168 35.9174 27.1168 35.9976V36.6542C27.1168 36.7272 27.0579 36.7928 26.9916 36.7928Z" fill="#8B315C"/>
<path d="M25.1274 38.7115L21.4431 38.7407C21.3621 38.7407 21.3031 38.675 21.3031 38.5875V37.8871C21.3031 37.7995 21.3694 37.7339 21.4431 37.7339H25.1274C25.201 37.7339 25.26 37.7995 25.26 37.8798V38.551C25.26 38.6458 25.201 38.7115 25.1274 38.7115Z" fill="#FFBD95"/>
<path d="M22.261 40.725L20.0578 40.7834C19.9768 40.7834 19.9105 40.7177 19.9105 40.6302V39.9225C19.9105 39.835 19.9768 39.7693 20.0578 39.762L22.261 39.7183C22.342 39.7183 22.401 39.7839 22.401 39.8642V40.5572C22.401 40.6521 22.3347 40.725 22.261 40.725Z" fill="#8B315C"/>
<path d="M26.9916 40.5937L23.4326 40.6959C23.3589 40.6959 23.2926 40.6302 23.2926 40.55V39.8642C23.2926 39.7839 23.3516 39.711 23.4326 39.711L26.9916 39.6453C27.0652 39.6453 27.1168 39.711 27.1168 39.7839V40.4405C27.1168 40.5281 27.0579 40.5937 26.9916 40.5937Z" fill="#FFBD95"/>
<path d="M23.7126 42.651L20.0578 42.8188C19.9768 42.8261 19.9105 42.7532 19.9105 42.6729V41.9653C19.9105 41.8777 19.9768 41.8048 20.0578 41.8048L23.7126 41.6661C23.7863 41.6661 23.8452 41.7245 23.8452 41.812V42.4905C23.8452 42.5781 23.7863 42.651 23.7126 42.651Z" fill="#FFBD95"/>
<path d="M48.4541 31.9051C48.4099 31.9051 48.3804 31.8759 48.3804 31.8321V19.0943C48.3804 19.0505 48.4099 19.0214 48.4541 19.0214C48.4983 19.0214 48.5278 19.0505 48.5278 19.0943V31.8321C48.5278 31.8686 48.4909 31.9051 48.4541 31.9051Z" fill="white"/>
<path d="M39.2803 20.9475H21.0286C20.9844 20.9475 20.955 20.9183 20.955 20.8745C20.955 20.8308 20.9844 20.8016 21.0286 20.8016H39.2803C39.3245 20.8016 39.354 20.8308 39.354 20.8745C39.354 20.9183 39.3245 20.9475 39.2803 20.9475Z" fill="white"/>
<path d="M50.134 31.1829L46.7666 30.4022C46.6045 30.3658 46.4645 30.5044 46.5014 30.6649L47.2898 33.9989C47.3266 34.1667 47.5403 34.2251 47.6582 34.101L48.2845 33.4809L49.9424 35.1224C50.0308 35.2099 50.1708 35.2099 50.2519 35.1224L51.2614 34.1229C51.3498 34.0354 51.3498 33.8968 51.2614 33.8165L49.6035 32.175L50.2298 31.5549C50.3624 31.4236 50.3035 31.2193 50.134 31.1829Z" fill="#FDDC61"/>
<path d="M41.2182 45.9439C41.2476 45.9804 41.255 46.0242 41.255 46.0679C41.255 46.1482 41.2329 46.2138 41.1813 46.2649C41.1298 46.316 41.0634 46.3379 40.9898 46.3379C40.9455 46.3379 40.9013 46.3306 40.8571 46.3087L39.4055 45.7542C39.3245 45.725 39.2582 45.674 39.2066 45.601C39.1624 45.5354 39.1329 45.4551 39.1329 45.3603C39.1329 45.2727 39.155 45.1925 39.2066 45.1268C39.2508 45.0539 39.3171 45.0028 39.4055 44.9663L40.8571 44.4119C40.9087 44.3973 40.9529 44.3827 40.9898 44.3827C41.0708 44.3827 41.1298 44.4046 41.1813 44.4556C41.2329 44.5067 41.255 44.5724 41.255 44.6526C41.255 44.7037 41.2403 44.7475 41.2182 44.7839C41.1887 44.8204 41.1592 44.8496 41.1076 44.8642L39.8182 45.353L41.115 45.8637C41.1592 45.8855 41.1961 45.9074 41.2182 45.9439Z" fill="#194FA0"/>
<path d="M42.0287 46.9069C41.9771 46.9433 41.9182 46.9579 41.8592 46.9579C41.7782 46.9579 41.7045 46.9287 41.6455 46.8777C41.5866 46.8266 41.5571 46.761 41.5571 46.6807C41.5571 46.6442 41.5645 46.615 41.5718 46.5786L42.5592 43.5072C42.5813 43.4415 42.6182 43.3832 42.6697 43.354C42.7213 43.3175 42.7729 43.3029 42.8392 43.3029C42.9203 43.3029 42.9939 43.3321 43.0529 43.3832C43.1118 43.4342 43.1487 43.4999 43.1487 43.5874C43.1487 43.602 43.1413 43.6385 43.1339 43.6823L42.1466 46.7537C42.1171 46.8193 42.0803 46.8704 42.0287 46.9069Z" fill="#194FA0"/>
<path d="M45.4918 45.1341C45.5361 45.207 45.5655 45.28 45.5655 45.3675C45.5655 45.4624 45.5434 45.5426 45.4918 45.6083C45.4476 45.6739 45.3813 45.725 45.2929 45.7615L43.8413 46.3159C43.7971 46.3305 43.7529 46.3451 43.7087 46.3451C43.6276 46.3451 43.5687 46.3232 43.5171 46.2722C43.4655 46.2211 43.4434 46.1554 43.4434 46.0752C43.4434 46.0241 43.4582 45.9876 43.4803 45.9512C43.5097 45.9147 43.5392 45.8855 43.5908 45.8636L44.8803 45.3748L43.5908 44.886C43.5466 44.8714 43.5097 44.8423 43.4803 44.8058C43.4508 44.7693 43.4434 44.7255 43.4434 44.6745C43.4434 44.5942 43.4655 44.5286 43.5171 44.4775C43.5687 44.4264 43.635 44.4045 43.7087 44.4045C43.7529 44.4045 43.7971 44.4118 43.8413 44.4337L45.2929 44.9882C45.374 45.0174 45.4403 45.0684 45.4918 45.1341Z" fill="#194FA0"/>
<path d="M40.8497 45.9439C40.8792 45.9804 40.8866 46.0242 40.8866 46.0679C40.8866 46.1482 40.8645 46.2138 40.8129 46.2649C40.7613 46.316 40.695 46.3379 40.6213 46.3379C40.5771 46.3379 40.5329 46.3306 40.4887 46.3087L39.0371 45.7542C38.956 45.725 38.8897 45.674 38.8381 45.601C38.7939 45.5354 38.7645 45.4551 38.7645 45.3603C38.7645 45.2727 38.7866 45.1925 38.8381 45.1268C38.8824 45.0539 38.9487 45.0028 39.0371 44.9663L40.4887 44.4119C40.5403 44.3973 40.5845 44.3827 40.6213 44.3827C40.7024 44.3827 40.7613 44.4046 40.8129 44.4556C40.8645 44.5067 40.8866 44.5724 40.8866 44.6526C40.8866 44.7037 40.8718 44.7475 40.8497 44.7839C40.8203 44.8204 40.7908 44.8496 40.7392 44.8642L39.4497 45.353L40.7466 45.8637C40.7908 45.8855 40.8276 45.9074 40.8497 45.9439Z" fill="#FDDC61"/>
<path d="M41.6602 46.9069C41.6086 46.9433 41.5497 46.9579 41.4907 46.9579C41.4097 46.9579 41.336 46.9287 41.2771 46.8777C41.2181 46.8266 41.1886 46.761 41.1886 46.6807C41.1886 46.6442 41.196 46.615 41.2034 46.5786L42.1907 43.5072C42.2128 43.4415 42.2497 43.3832 42.3013 43.354C42.3528 43.3175 42.4044 43.3029 42.4707 43.3029C42.5518 43.3029 42.6255 43.3321 42.6844 43.3832C42.7434 43.4342 42.7802 43.4999 42.7802 43.5874C42.7802 43.602 42.7728 43.6385 42.7655 43.6823L41.7781 46.7537C41.7486 46.8193 41.7118 46.8704 41.6602 46.9069Z" fill="#FDDC61"/>
<path d="M45.1234 45.1341C45.1676 45.207 45.1971 45.28 45.1971 45.3675C45.1971 45.4624 45.175 45.5426 45.1234 45.6083C45.0792 45.6739 45.0129 45.725 44.9245 45.7615L43.4729 46.3159C43.4287 46.3305 43.3845 46.3451 43.3402 46.3451C43.2592 46.3451 43.2002 46.3232 43.1487 46.2722C43.0971 46.2211 43.075 46.1554 43.075 46.0752C43.075 46.0241 43.0897 45.9876 43.1118 45.9512C43.1413 45.9147 43.1708 45.8855 43.2224 45.8636L44.5118 45.3748L43.2224 44.886C43.1781 44.8714 43.1413 44.8423 43.1118 44.8058C43.0824 44.7693 43.075 44.7255 43.075 44.6745C43.075 44.5942 43.0971 44.5286 43.1487 44.4775C43.2002 44.4264 43.2666 44.4045 43.3402 44.4045C43.3845 44.4045 43.4287 44.4118 43.4729 44.4337L44.9245 44.9882C45.0055 45.0174 45.0718 45.0684 45.1234 45.1341Z" fill="#FDDC61"/>
<path d="M42.6771 20.0647H29.8855C29.5687 20.0647 29.3181 19.8093 29.3181 19.5029C29.3181 19.1892 29.576 18.9412 29.8855 18.9412H42.6698C42.9866 18.9412 43.2371 19.1965 43.2371 19.5029C43.2445 19.8166 42.994 20.0647 42.6771 20.0647ZM29.8855 19.0579C29.635 19.0579 29.436 19.2549 29.436 19.5029C29.436 19.751 29.635 19.9479 29.8855 19.9479H42.6698C42.9203 19.9479 43.1192 19.751 43.1192 19.5029C43.1192 19.2549 42.9203 19.0579 42.6698 19.0579H29.8855Z" fill="white"/>
</svg>
